<?xml version="1.0" encoding="UTF-8" standalone="no"?>
<!-- Created with Inkscape (http://www.inkscape.org/) -->

<svg
   xmlns:dc="http://purl.org/dc/elements/1.1/"
   xmlns:cc="http://creativecommons.org/ns#"
   xmlns:rdf="http://www.w3.org/1999/02/22-rdf-syntax-ns#"
   xmlns:svg="http://www.w3.org/2000/svg"
   xmlns="http://www.w3.org/2000/svg"
   xmlns:sodipodi="http://sodipodi.sourceforge.net/DTD/sodipodi-0.dtd"
   xmlns:inkscape="http://www.inkscape.org/namespaces/inkscape"
   version="1.1"
   id="svg2"
   xml:space="preserve"
   width="800"
   height="1066.6667"
   viewBox="0 0 800 1066.6667"
   sodipodi:docname="board.svg"
   inkscape:version="0.92.2 (unknown)"><metadata
     id="metadata8"><rdf:RDF><cc:Work
         rdf:about=""><dc:format>image/svg+xml</dc:format><dc:type
           rdf:resource="http://purl.org/dc/dcmitype/StillImage" /><dc:title></dc:title></cc:Work></rdf:RDF></metadata><defs
     id="defs6" /><sodipodi:namedview
     pagecolor="#ffffff"
     bordercolor="#666666"
     borderopacity="1"
     objecttolerance="10"
     gridtolerance="10"
     guidetolerance="10"
     inkscape:pageopacity="0"
     inkscape:pageshadow="2"
     inkscape:window-width="1636"
     inkscape:window-height="875"
     id="namedview4"
     showgrid="false"
     inkscape:zoom="0.88499993"
     inkscape:cx="260.46026"
     inkscape:cy="593.69898"
     inkscape:window-x="71"
     inkscape:window-y="34"
     inkscape:window-maximized="0"
     inkscape:current-layer="g12" /><g
     id="g10"
     inkscape:groupmode="layer"
     inkscape:label="ink_ext_XXXXXX"
     transform="matrix(1.3333333,0,0,-1.3333333,0,1066.6667)"><g
       id="g12"
       transform="scale(0.1)"><path
         d="m 2813.61,0 h 399.633 V 4908.47 H 2813.61 Z"
         style="fill:#2e338f;fill-opacity:1;fill-rule:nonzero;stroke:none"
         id="path16"
         inkscape:connector-curvature="0" /><path
         d="m 2813.61,4068.5 h 399.633 v 839.977 H 2813.61 Z"
         style="fill:#1a1a3a;fill-opacity:1;fill-rule:nonzero;stroke:none"
         id="path18"
         inkscape:connector-curvature="0" /><path
         d="m 101.078,4210.27 h 5824.69 V 7907.84 H 101.078 Z"
         style="fill:#2e338f;fill-opacity:1;fill-rule:nonzero;stroke:none"
         id="path20"
         inkscape:connector-curvature="0" /><path
         d="M 236.62,4643.98 H 5819.48 V 7799.2 H 236.62 Z"
         style="fill:#eaebeb;fill-opacity:1;fill-rule:nonzero;stroke:none"
         id="path22"
         inkscape:connector-curvature="0" /><path
         d="m 216.672,4540 h 5586.66 v 40 H 216.672 Z"
         style="fill:#1a1a3a;fill-opacity:1;fill-rule:nonzero;stroke:none"
         id="path24"
         inkscape:connector-curvature="0" /><path
         d="m 216.672,4440 h 5586.66 v 40 H 216.672 Z"
         style="fill:#1a1a3a;fill-opacity:1;fill-rule:nonzero;stroke:none"
         id="path26"
         inkscape:connector-curvature="0" /><path
         d="m 216.672,4340 h 5586.66 v 40 H 216.672 Z"
         style="fill:#1a1a3a;fill-opacity:1;fill-rule:nonzero;stroke:none"
         id="path28"
         inkscape:connector-curvature="0" /><path
         d="m 216.672,4240 h 5586.66 v 40 H 216.672 Z"
         style="fill:#1a1a3a;fill-opacity:1;fill-rule:nonzero;stroke:none"
         id="path30"
         inkscape:connector-curvature="0" /><path
         d="M 207.371,7799.2 V 4613.98 H 5819.48 V 7799.2 Z m 5582.859,-30 c 0,-29.57 0,-3095.65 0,-3125.22 -29.02,0 -5524.578,0 -5553.605,0 0,29.57 0,3095.65 0,3125.22 29.027,0 5524.585,0 5553.605,0"
         style="fill:#161315;fill-opacity:1;fill-rule:nonzero;stroke:none"
         id="path32"
         inkscape:connector-curvature="0" /><path
         d="m 2675.94,4310 h 674.969 v 260 H 2675.94 Z"
         style="fill:#eaebeb;fill-opacity:1;fill-rule:nonzero;stroke:none"
         id="path282"
         inkscape:connector-curvature="0" /><path
         d="m 2670.94,4575 v -270 h 684.97 v 270 z m 674.97,-10 c 0,-9.43 0,-240.57 0,-250 -9.78,0 -655.19,0 -664.97,0 0,9.43 0,240.57 0,250 9.78,0 655.19,0 664.97,0"
         style="fill:#161315;fill-opacity:1;fill-rule:nonzero;stroke:none"
         id="path284"
         inkscape:connector-curvature="0" /></g></g></svg>