<?xml version="1.0" encoding="UTF-8" standalone="no"?>
<svg
   xmlns:dc="http://purl.org/dc/elements/1.1/"
   xmlns:cc="http://creativecommons.org/ns#"
   xmlns:rdf="http://www.w3.org/1999/02/22-rdf-syntax-ns#"
   xmlns:svg="http://www.w3.org/2000/svg"
   xmlns="http://www.w3.org/2000/svg"
   xmlns:sodipodi="http://sodipodi.sourceforge.net/DTD/sodipodi-0.dtd"
   xmlns:inkscape="http://www.inkscape.org/namespaces/inkscape"
   version="1.1"
   viewBox="0 0 512 512"
   enable-background="new 0 0 512 512"
   id="svg8"
   sodipodi:docname="github.svg"
   inkscape:version="0.92.3 (unknown)">
  <metadata
     id="metadata14">
    <rdf:RDF>
      <cc:Work
         rdf:about="">
        <dc:format>image/svg+xml</dc:format>
        <dc:type
           rdf:resource="http://purl.org/dc/dcmitype/StillImage" />
      </cc:Work>
    </rdf:RDF>
  </metadata>
  <defs
     id="defs12" />
  <sodipodi:namedview
     pagecolor="#ffffff"
     bordercolor="#666666"
     borderopacity="1"
     objecttolerance="10"
     gridtolerance="10"
     guidetolerance="10"
     inkscape:pageopacity="0"
     inkscape:pageshadow="2"
     inkscape:window-width="944"
     inkscape:window-height="718"
     id="namedview10"
     showgrid="false"
     inkscape:zoom="0.4609375"
     inkscape:cx="256"
     inkscape:cy="256"
     inkscape:window-x="75"
     inkscape:window-y="34"
     inkscape:window-maximized="0"
     inkscape:current-layer="svg8" />
  <g
     id="g6">
    <path
       d="m374,0h-236c-76.2,0-138,61.8-138,138v236c0,76.2 61.8,138 138,138h236c76.2,0 138-61.8 138-138v-236c0-76.2-61.8-138-138-138zm10.9,267.7c-1,23.6-5.8,45.8-21.1,64.7-10.6,13-24.3,21.3-40.1,26.5-15.8,5.1-32.1,6.6-48.6,6.5-16.5-0.1-32.9,0.4-49.4-0.2-18.3-0.6-36.1-4-52.5-12.6-19.9-10.5-33.2-26.7-40-48.2-4.5-14-6.5-28.3-6.2-43 0.3-17.2 5.1-32.9 15.7-46.5 3.1-4.1 4.7-7.6 4.3-13.4-0.7-9.2 0.7-18.7 2.2-27.9 1.3-7.7 3.8-15.2 6-22.8 0.2-0.8 0.6-1.6 1.1-2.3 0.7-1.2 3.8-1.6 6.8-0.8 19.9,5.3 37.6,14.7 54.6,25.7 1.7,1.1 4.4,1.5 6.5,1.1 14.9-2.6 29.8-3 44.8-2.3 6.1,0.3 12,1.8 18.1,2.2 2.6,0.2 5.6-0.3 7.7-1.6 15.6-9.8 31.9-18.2 49.4-24 1.6-0.6 3.4-1 5.3-1.4 3-0.6 6.2,1.2 7.3,4.1 1.4,3.8 2.9,7.7 3.6,11.8 2.1,11.8 4.7,23.8 4.5,35.6-0.1,7.9 2.3,13 6.5,19.1 10.6,14.8 14.3,31.7 13.5,49.7z"
       id="path2" />
    <path
       d="m328.7,257.1c-7.3-3.3-15.9-4.8-24-5.3-8.9-0.5-18,1.6-27,1.5-19.7-0.2-39.4-1.2-59.1-1.4-7.9-0.1-15.7,0.9-23.5,1.4-7.1,0.4-13.1,3.3-18.5,7.9-21.1,17.9-17.9,50.7-5.1,67.9 8,10.8 19.5,15.8 32.1,18.8 17.1,4.1 34.4,5.2 52,4.4 17.8,0.8 35.5-0.2 52.9-4.4 8.9-2.1 17.5-5 24.6-11.1 15.5-13.4 19.5-30.9 16.5-50.3-2-12.9-8.6-24-20.9-29.4zm-117.4,67.3c-10.383,0-18.8-11.238-18.8-25.1 0-13.862 8.417-25.1 18.8-25.1 10.383,0 18.8,11.238 18.8,25.1-2.84217e-14,13.862-8.417,25.1-18.8,25.1zm89.7,0c-10.383,0-18.8-11.238-18.8-25.1 0-13.862 8.417-25.1 18.8-25.1 10.383,0 18.8,11.238 18.8,25.1 0,13.862-8.417,25.1-18.8,25.1z"
       id="path4" />
  </g>
  <path
     style="fill:#ffffff;stroke-width:2.16949153"
     d="m 216.08136,363.52568 c -28.26382,-4.12673 -44.58948,-10.99027 -60.05919,-25.24975 -28.85506,-26.59767 -36.81373,-82.69022 -16.45127,-115.94836 6.75849,-11.0387 7.88786,-15.00194 9.44583,-33.14791 0.97324,-11.33559 3.10554,-25.00339 4.73844,-30.37288 2.51501,-8.27014 3.77489,-9.70904 8.24077,-9.41168 8.26299,0.5502 28.16351,8.66566 42.28391,17.24344 l 12.88625,7.82807 38.17964,-0.0478 38.17963,-0.0478 18.22715,-9.70145 c 25.69529,-13.67639 37.95726,-17.972 41.91814,-14.68476 3.83564,3.1833 7.55384,19.38107 9.75126,42.47979 1.28512,13.50891 3.02498,19.55727 7.80086,27.11864 8.72528,13.8142 11.90942,26.24724 11.90942,46.50227 0,53.59539 -26.79599,86.6217 -77.63604,95.68711 -15.15078,2.70156 -74.8957,3.87287 -89.4148,1.75297 z m 88.94915,-13.85443 c 31.20053,-6.93791 45.55932,-23.67382 45.55932,-53.10176 0,-22.44286 -6.85054,-33.79119 -24.97876,-41.3788 -7.42371,-3.10722 -17.41957,-3.5983 -70.59016,-3.46799 -39.8079,0.0976 -64.22772,1.01397 -68.33898,2.56457 -17.28207,6.51809 -28.84456,28.63028 -25.95537,49.63724 3.39021,24.64975 20.12876,40.6242 47.76158,45.58131 7.15932,1.28432 15.45762,2.76528 18.44067,3.29102 10.11628,1.78291 66.10382,-0.45768 78.1017,-3.12559 z"
     id="path3719"
     inkscape:connector-curvature="0" />
  <path
     style="fill:#ffffff;stroke-width:2.16949153"
     d="m 200.72803,317.34654 c -5.18154,-5.18154 -6.34159,-8.17768 -6.34159,-16.37892 0,-11.02495 4.39104,-21.56205 9.85991,-23.66065 6.85006,-2.62862 13.31066,-1.28112 18.05122,3.76498 12.57577,13.3863 4.89054,42.61619 -11.20481,42.61619 -2.21272,0 -6.87685,-2.85372 -10.36473,-6.3416 z"
     id="path3721"
     inkscape:connector-curvature="0" />
  <path
     style="fill:#ffffff;stroke-width:2.16949153"
     d="m 292.79528,320.5203 c -15.79246,-11.06147 -9.57202,-44.56098 8.27442,-44.56098 7.11168,0 14.08912,6.14203 16.10591,14.17755 2.53291,10.09193 -0.58022,23.39545 -6.7082,28.66652 -6.59994,5.67702 -11.35827,6.13931 -17.67213,1.71691 z"
     id="path3723"
     inkscape:connector-curvature="0" />
</svg>
