<?xml version="1.0" encoding="iso-8859-1"?>
<!-- Generator: Adobe Illustrator 19.0.0, SVG Export Plug-In . SVG Version: 6.00 Build 0)  -->
<svg version="1.1" id="Layer_1" xmlns="http://www.w3.org/2000/svg" xmlns:xlink="http://www.w3.org/1999/xlink" x="0px" y="0px"
	 viewBox="0 0 512 512" style="enable-background:new 0 0 512 512;" xml:space="preserve">
<path style="fill:#D6E5F6;" d="M295.382,59.077c-119.44,0-216.613,97.174-216.613,216.615c0,10.877,8.817,19.692,19.692,19.692
	v118.154c-10.875,0-19.692,8.818-19.692,19.692c0,10.877,8.817,19.692,19.692,19.692h393.846c10.875,0,19.692-8.816,19.692-19.692
	V275.692C512,156.251,414.825,59.077,295.382,59.077z"/>
<path style="fill:#A4C6EC;" d="M216.615,256H98.462c-10.875,0-19.692,8.817-19.692,19.692v157.538
	c0,10.877,8.817,19.692,19.692,19.692h171.313h25.61h19.692v-19.692v-25.61v-53.156C315.077,300.171,270.907,256,216.615,256z"/>
<path style="fill:#385C8E;" d="M98.462,275.692c-43.503,0-78.769,35.269-78.769,78.772v98.459h157.538v-98.459
	C177.231,310.961,141.964,275.692,98.462,275.692z"/>
<path style="fill:#A4C6EC;" d="M315.077,59.981v392.942h177.231c10.875,0,19.692-8.816,19.692-19.692V275.692
	C512,162.89,425.325,69.967,315.077,59.981z"/>
<path style="fill:#D6E5F6;" d="M98.462,256C44.17,256,0,300.171,0,354.464v78.767c0,10.877,8.817,19.692,19.692,19.692h19.692
	v-98.459c0-32.575,26.502-59.08,59.077-59.08s59.077,26.505,59.077,59.08v98.459h19.692c10.875,0,19.692-8.816,19.692-19.692
	v-78.767C196.923,300.171,152.753,256,98.462,256z"/>
<g>
</g>
<g>
</g>
<g>
</g>
<g>
</g>
<g>
</g>
<g>
</g>
<g>
</g>
<g>
</g>
<g>
</g>
<g>
</g>
<g>
</g>
<g>
</g>
<g>
</g>
<g>
</g>
<g>
</g>
</svg>
