<?xml version="1.0" encoding="UTF-8" standalone="no"?>
<!-- Created with Inkscape (http://www.inkscape.org/) -->

<svg
   xmlns:dc="http://purl.org/dc/elements/1.1/"
   xmlns:cc="http://creativecommons.org/ns#"
   xmlns:rdf="http://www.w3.org/1999/02/22-rdf-syntax-ns#"
   xmlns:svg="http://www.w3.org/2000/svg"
   xmlns="http://www.w3.org/2000/svg"
   xmlns:sodipodi="http://sodipodi.sourceforge.net/DTD/sodipodi-0.dtd"
   xmlns:inkscape="http://www.inkscape.org/namespaces/inkscape"
   width="350mm"
   height="520mm"
   viewBox="0 0 350 520"
   version="1.1"
   id="svg9664"
   inkscape:version="0.92.3 (unknown)"
   sodipodi:docname="penguinParachute.svg">
  <defs
     id="defs9658">
    <inkscape:path-effect
       effect="bspline"
       id="path-effect10921"
       is_visible="true"
       weight="33.333333"
       steps="2"
       helper_size="0"
       apply_no_weight="true"
       apply_with_weight="true"
       only_selected="false" />
    <inkscape:path-effect
       effect="bspline"
       id="path-effect10899"
       is_visible="true"
       weight="33.333333"
       steps="2"
       helper_size="0"
       apply_no_weight="true"
       apply_with_weight="true"
       only_selected="false" />
  </defs>
  <sodipodi:namedview
     id="base"
     pagecolor="#ffffff"
     bordercolor="#666666"
     borderopacity="1.0"
     inkscape:pageopacity="0.0"
     inkscape:pageshadow="2"
     inkscape:zoom="0.22627417"
     inkscape:cx="715.52347"
     inkscape:cy="628.97965"
     inkscape:document-units="mm"
     inkscape:current-layer="layer3"
     showgrid="false"
     inkscape:snap-global="false"
     inkscape:window-width="1855"
     inkscape:window-height="1056"
     inkscape:window-x="65"
     inkscape:window-y="24"
     inkscape:window-maximized="1" />
  <metadata
     id="metadata9661">
    <rdf:RDF>
      <cc:Work
         rdf:about="">
        <dc:format>image/svg+xml</dc:format>
        <dc:type
           rdf:resource="http://purl.org/dc/dcmitype/StillImage" />
        <dc:title></dc:title>
      </cc:Work>
    </rdf:RDF>
  </metadata>
  <g
     inkscape:groupmode="layer"
     id="layer3"
     inkscape:label="Parachute"
     transform="translate(0,210)"
     sodipodi:insensitive="true">
    <g
       transform="matrix(0.74617523,-0.2016872,0.2016872,0.74617523,-68.498541,-151.04409)"
       id="g8">
      <polyline
         style="fill:#999999"
         points="261.146,75.998 261.146,498.276 250.854,498.276 250.854,76.011  "
         id="polyline2" />
      <path
         inkscape:connector-curvature="0"
         style="fill:#999999"
         d="m 256.037,512 c -2.21,0 -4.174,-1.411 -4.879,-3.507 l -104.72,-311.571 9.756,-3.279 99.84,297.053 99.762,-297.049 9.757,3.277 -104.637,311.568 c -0.704,2.095 -2.668,3.508 -4.879,3.508 z"
         id="path4" />
      <path
         inkscape:connector-curvature="0"
         style="fill:#999999"
         d="m 256.075,511.996 c -1.754,0 -3.386,-0.893 -4.332,-2.369 L 51.969,198.057 c -0.103,-0.161 -0.196,-0.326 -0.28,-0.495 l -0.808,-1.634 9.225,-4.565 0.682,1.378 195.283,304.567 196.103,-306.437 8.669,5.549 -200.434,313.204 c -0.944,1.477 -2.578,2.371 -4.332,2.372 -10e-4,0 -10e-4,0 -0.002,0 z"
         id="path6" />
    </g>
    <path
       inkscape:connector-curvature="0"
       style="fill:#06b559;stroke-width:0.77295226"
       d="m 319.08053,-89.765496 c -25.5238,-15.043174 -57.99403,-7.53332 -74.50606,16.32729 -1.01457,1.46888 -1.97201,2.995174 -2.86112,4.584645 -1.58112,-0.932199 -3.18941,-1.775401 -4.82448,-2.528075 -12.32351,-5.76485 -25.87079,-6.64622 -38.26476,-3.29619 -12.40291,3.35244 -23.6499,10.945981 -31.40075,22.136809 -1.02598,1.462354 -1.98175,2.997792 -2.87717,4.59939 -1.5785,-0.92249 -3.17709,-1.768323 -4.80249,-2.52362 -12.33319,-5.762219 -25.88309,-6.653295 -38.28676,-3.300647 -12.39398,3.350026 -23.642834,10.933655 -31.386614,22.112166 -1.030615,1.483619 -1.995139,3.022238 -2.891309,4.624035 -1.568798,-0.92511 -3.164771,-1.761236 -4.778566,-2.50926 C 69.864608,-35.3109 56.302381,-36.209024 43.889767,-32.85396 29.854194,-29.060219 17.288068,-19.83302 9.6118234,-6.1177514 -11.562108,-84.454226 29.146143,-164.92052 101.89831,-195.58654 c 6.61291,-2.7875 13.50102,-5.16416 20.624,-7.08946 7.14238,-1.93054 14.28986,-3.34762 21.42766,-4.26727 78.27871,-10.14561 153.96168,38.85997 175.13056,117.177774 z"
       id="path10" />
    <g
       transform="matrix(0.74617523,-0.2016872,0.2016872,0.74617523,-68.498541,-151.04409)"
       id="g16">
      <path
         inkscape:connector-curvature="0"
         style="fill:#0b9b53"
         d="M 256,207.37 V 0 c 0.45,0 0.901,0 1.338,0.013 56.648,1.441 102.347,93.727 102.347,207.357 -14.217,-14.538 -33.039,-21.82 -51.849,-21.82 -18.81,-0.001 -37.619,7.281 -51.836,21.82 z"
         id="path12" />
      <path
         inkscape:connector-curvature="0"
         style="fill:#0b9b53"
         d="M 48.631,207.37 C 48.631,93.29 140.749,0.721 254.663,0.013 198.014,1.454 152.315,93.74 152.315,207.37 c -14.217,-14.538 -33.039,-21.82 -51.849,-21.82 -18.81,0 -37.619,7.281 -51.835,21.82 z"
         id="path14" />
    </g>
    <path
       inkscape:connector-curvature="0"
       style="fill:#088443;stroke-width:0.77295226"
       d="m 244.57355,-73.438736 c -1.01458,1.46887 -1.97202,2.995141 -2.86114,4.584614 -1.58112,-0.932199 -3.18939,-1.775375 -4.82449,-2.528044 C 214.75216,-149.69569 166.67921,-205.85582 127.45711,-199.66288 l 39.76606,147.121128 c -1.02599,1.462331 -1.98176,2.997767 -2.8772,4.599366 -1.57849,-0.922489 -3.17708,-1.768287 -4.80246,-2.523595 L 119.78007,-197.57741 c -37.011397,14.41338 -50.225745,87.13834 -29.909183,165.922743 -1.030641,1.483625 -1.995146,3.022213 -2.89134,4.624016 -1.568799,-0.925111 -3.164766,-1.761211 -4.778561,-2.509235 -10.435873,-40.36289 -12.63898,-80.375994 -6.185173,-113.055114 4.695841,-23.78785 13.643269,-41.90624 25.883257,-52.99176 6.61215,-2.78728 13.50026,-5.16394 20.62324,-7.08924 7.14238,-1.93054 14.28986,-3.34762 21.42766,-4.26727 16.15087,3.42203 32.98827,14.57091 49.01386,32.73785 22.02921,24.9803 40.28405,60.65471 51.60972,100.766684 z"
       id="path18" />
  </g>
  <g
     inkscape:groupmode="layer"
     id="layer4"
     inkscape:label="Backpack"
     transform="translate(0,223)"
     sodipodi:insensitive="true">
    <g
       inkscape:groupmode="layer"
       id="layer7"
       inkscape:label="pipe" />
    <g
       inkscape:groupmode="layer"
       id="layer5"
       inkscape:label="top">
      <rect
         style="fill:#ffffff;fill-opacity:0.97126435;stroke:#000000;stroke-width:1.40788031;stroke-miterlimit:4;stroke-dasharray:none;stroke-opacity:1"
         id="rect10399-2"
         width="23.515972"
         height="49.913288"
         x="249.11391"
         y="-42.212215"
         transform="matrix(0.81076914,0.58536604,-0.64300374,0.76586304,0,0)" />
    </g>
    <g
       inkscape:groupmode="layer"
       id="layer6"
       inkscape:label="bottom">
      <rect
         style="fill:#ffffff;fill-opacity:0.97126435;stroke:#000000;stroke-width:1.5289979;stroke-miterlimit:4;stroke-dasharray:none;stroke-opacity:1"
         id="rect10399"
         width="39.622372"
         height="84.099564"
         x="247.43462"
         y="-15.15573"
         transform="matrix(0.83111692,0.55609771,-0.61529928,0.78829359,0,0)" />
    </g>
    <g
       inkscape:groupmode="layer"
       id="layer8"
       inkscape:label="grills">
      <rect
         style="fill:#696969;fill-opacity:0.97126435;stroke:#000000;stroke-width:1.20599997;stroke-linejoin:round;stroke-miterlimit:4;stroke-dasharray:none;stroke-opacity:1;paint-order:fill markers stroke"
         id="rect10736"
         width="24.588797"
         height="7.4835467"
         x="249.69449"
         y="44.834793"
         transform="rotate(35.748041)" />
      <rect
         style="fill:#696969;fill-opacity:0.97126435;stroke:#000000;stroke-width:1.20599997;stroke-linejoin:round;stroke-miterlimit:4;stroke-dasharray:none;stroke-opacity:1;paint-order:fill markers stroke"
         id="rect10736-8"
         width="24.588797"
         height="7.4835467"
         x="250.0318"
         y="28.190125"
         transform="rotate(35.748041)" />
      <circle
         style="fill:#ff0000;fill-opacity:0.97126435;stroke:#000000;stroke-width:1.20599997;stroke-linejoin:round;stroke-miterlimit:4;stroke-dasharray:none;stroke-opacity:1;paint-order:fill markers stroke"
         id="path10766"
         cx="258.59909"
         cy="8.5140629"
         r="3.7417734"
         transform="rotate(31.381531)" />
      <circle
         style="fill:#0000ff;fill-opacity:0.97126435;stroke:#000000;stroke-width:1.20599997;stroke-linejoin:round;stroke-miterlimit:4;stroke-dasharray:none;stroke-opacity:1;paint-order:fill markers stroke"
         id="path10766-2"
         cx="256.99548"
         cy="21.877558"
         r="3.7417734"
         transform="rotate(31.381531)" />
    </g>
  </g>
  <g
     inkscape:label="Penguin"
     inkscape:groupmode="layer"
     id="layer1"
     transform="translate(0,223)"
     sodipodi:insensitive="true">
    <g
       inkscape:groupmode="layer"
       id="layer2"
       inkscape:label="Penguin Outline">
      <path
         id="path10230"
         style="fill:#b8872b;stroke-width:0.26458335"
         d="m 334.40342,129.02114 c -0.97258,0.35793 -2.24427,0.45999 -3.79452,0.16546 -1.03863,-0.19734 -2.18562,-0.51284 -3.32423,-0.62939 -0.18186,0.10918 -0.37763,0.21559 -0.50046,0.31337 -0.47896,0.38131 -1.00634,0.69722 -1.50958,1.04586 -0.61418,0.28442 -1.22849,0.56919 -1.84266,0.8536 -0.60165,0.17529 -1.22688,0.28333 -1.80482,0.5256 -0.0661,0.0277 0.15772,0.13192 0.10945,0.18479 -0.23212,0.25418 -0.55216,0.41093 -0.83382,0.60881 -1.56873,1.10236 -0.98062,0.71219 -2.90454,1.67559 -0.15261,0.10095 -0.2966,0.21658 -0.45785,0.30304 -0.797,0.4273 -1.09652,0.59463 -1.14751,0.616 -0.0688,0.0454 -0.13819,0.0902 -0.20696,0.13587 0.5745,0.0897 0.3705,0.0577 -0.35002,0.16299 -0.2554,0.3903 -1.87985,1.92035 -2.25916,2.36706 -0.21037,0.24773 -0.37584,0.53014 -0.56381,0.79529 -0.47695,0.99997 -1.30678,1.79649 -2.22533,2.41976 -0.71092,1.47868 -1.64687,2.83381 -2.51763,4.22085 -0.40038,0.65641 -0.78872,1.31978 -1.19167,1.97462 -0.78008,1.27316 -1.55502,2.54937 -2.33254,3.82409 -0.28476,0.46693 -0.56967,0.93375 -0.85439,1.40072 -0.23182,0.38017 -0.46374,0.76029 -0.6956,1.14042 -0.21158,0.34693 -0.42319,0.69385 -0.63481,1.04073 l -0.80514,1.31999 c 1.7222,0.34538 3.62969,0.76355 4.78728,1.05508 1.55146,0.39072 4.19693,0.83422 5.87895,0.98612 2.37428,0.21439 3.29747,0.42242 4.12722,0.92851 1.28948,0.78652 1.40287,0.72084 2.84556,-1.64439 1.48016,-2.42664 3.96852,-5.23005 6.61995,-7.45814 1.23406,-1.03704 2.28797,-1.89797 2.342,-1.91338 0.054,-0.0155 3.32691,1.16821 7.27293,2.63055 7.74633,2.87069 8.69031,3.06538 10.05471,2.0762 0.65239,-0.473 0.80172,-0.70675 0.8688,-1.35984 0.0709,-0.69094 -0.37026,-1.33928 -3.55982,-5.23181 -2.00239,-2.44368 -4.58889,-5.48274 -5.74783,-6.75343 -2.0076,-2.20121 -2.10323,-2.36133 -2.02465,-3.39409 0.11659,-1.53142 -0.24472,-4.1781 -0.81658,-6.38593 z m -7.66088,-0.50103 c -0.29059,-0.0112 -0.58027,-0.0114 -0.86529,0.0164 -0.22609,0.022 0.45803,0.14643 0.67637,0.0842 0.0628,-0.0179 0.12591,-0.0559 0.18889,-0.10027 z m -11.05604,6.19052 c -0.12054,0.10256 -0.24191,0.20393 -0.36214,0.30693 0.0769,-0.0466 0.15105,-0.0967 0.21669,-0.15777 0.0372,-0.0346 0.0985,-0.10181 0.14545,-0.14916 z m 0.006,0.2941 c -0.13467,0.0213 -0.28164,0.0467 -0.44494,0.0785 -0.22274,0.19081 -0.4457,0.3812 -0.67045,0.56924 0.0835,-7.8e-4 0.16656,-0.005 0.24836,-0.0162 0.25549,-0.0359 0.63349,-0.41216 0.86703,-0.63152 z m -97.12114,138.09503 c -1.98595,-1.15946 -2.03846,-0.82086 -9.24724,-1.29051 -0.003,0.0508 -0.009,0.10242 -0.0189,0.1561 0.17551,0.42797 0.26503,1.15433 0.0333,1.37138 0.61073,0.48896 0.67004,1.26783 -0.20973,2.51425 0.72123,1.28578 0.86326,1.85056 0.74682,2.96938 -0.17363,1.66858 0.32939,3.8812 1.43492,6.31394 1.04073,2.29018 2.84501,5.07646 3.85544,5.95389 1.0067,0.87421 2.40807,0.99316 3.38647,0.2872 1.15138,-0.83081 1.17388,-1.70795 0.0958,-3.71081 -1.40983,-2.61892 -0.67687,-3.03112 1.35,-0.75943 1.96044,2.19723 3.85698,3.7953 4.65146,3.91947 0.79875,0.12479 1.75977,-0.3704 2.23737,-1.15338 0.50294,-0.82454 -0.1974,-2.69374 -1.62725,-4.34235 -1.51185,-1.74312 -1.43505,-2.24862 0.28409,-1.86901 2.56471,0.56637 3.7905,-0.2336 2.86208,-1.86794 -0.44857,-0.78971 -0.82379,-1.07901 -2.63378,-2.03324 -1.1608,-0.612 -2.47944,-1.25108 -2.93038,-1.41999 -0.7279,-0.27264 -0.78524,-0.36395 -0.51101,-0.81351 -1.71376,0.60273 -2.48777,-3.48298 -3.75947,-4.22545 z m -9.28457,-1.03185 c -0.009,0.0365 -0.0231,0.0747 -0.0353,0.11228 0.0202,0.0465 0.0434,0.0987 0.0573,0.13543 0.012,-0.0677 0.019,-0.13458 0.001,-0.19915 -0.004,-0.0151 -0.014,-0.032 -0.023,-0.0486 z m -10.19339,-1.171 c -5.7883,-0.74045 -10.90397,-1.96118 -13.29717,-4.27066 0.35535,1.82067 0.33957,1.93835 -0.37756,2.81806 -1.07137,1.31428 -1.12214,2.87229 -0.17229,5.28701 0.41875,1.06446 1.00806,2.82952 1.31011,3.9225 0.31238,1.13019 1.05181,2.76063 1.71448,3.78056 2.31889,3.56901 4.41043,3.55305 4.34755,-0.0321 -0.0137,-0.78273 -0.20771,-1.84944 -0.43063,-2.37037 -0.4826,-1.12799 -0.0695,-1.81831 0.70607,-1.17945 0.28085,0.23129 1.31214,1.45308 2.29132,2.71478 2.09352,2.69747 2.80943,3.21336 4.04433,2.91418 1.36709,-0.33121 1.93367,-1.47322 1.60161,-3.22815 -0.14689,-0.77638 -0.45301,-1.7607 -0.6803,-2.18731 -0.57218,-1.07391 -0.18845,-1.48129 1.25314,-1.33001 0.99692,0.10459 1.31885,0.007 1.7139,-0.51748 0.42446,-0.56375 0.40894,-0.76492 -0.12132,-1.57943 -0.34259,-0.52625 -1.33912,-1.45152 -2.28448,-2.12163 -1.24138,-0.87998 -1.62646,-1.27125 -1.48309,-1.50629 0.0602,0.0449 0.13459,0.0856 0.21645,0.12152 -0.0243,-0.0253 -0.046,-0.0526 -0.055,-0.0875 -0.005,-0.0362 0.006,0.0435 -0.0154,-0.0868 -1e-4,-0.004 0.003,-0.004 0.004,-0.006 0.006,-0.0121 0.005,-0.008 0.0106,-0.0129 6.9e-4,-0.003 -1e-4,-0.004 6e-5,-0.006 0.001,-0.003 8.5e-4,5.2e-4 5.2e-4,0.004 4e-5,0 -1e-5,0 0,0 -0.005,-0.0624 -0.006,0.0219 -0.004,-0.0565 0.004,-0.0382 0.0123,-0.0781 3e-4,-0.11546 -0.007,-0.0296 -0.0126,-0.0592 -0.0175,-0.0894 -0.003,-0.0119 -0.001,-0.0234 -0.006,-0.0345 -0.005,-0.0111 -0.0104,-0.0222 -0.0156,-0.0331 -0.002,-0.009 -0.006,-0.0195 -0.009,-0.0294 -0.001,-0.005 -5.6e-4,-0.0122 -0.003,-0.018 -0.003,-0.011 -0.009,-0.0212 -0.0126,-0.0318 -0.008,-0.0228 -0.0157,-0.0454 -0.0269,-0.0672 -0.01,-0.0396 -0.0202,-0.079 -0.0291,-0.11887 -0.005,-0.0234 -0.01,-0.0471 -0.0158,-0.0703 -0.004,-0.0156 -0.011,-0.0303 -0.0149,-0.046 -1e-4,-0.004 7e-5,-0.006 -0.001,-0.008 -0.0153,-0.0257 -0.017,-0.0252 -0.0269,-0.0521 -0.005,-0.0138 -0.009,-0.0284 -0.0145,-0.0428 -0.002,-0.006 -0.003,-0.0123 -0.006,-0.0183 -0.004,-0.009 -0.011,-0.016 -0.0163,-0.0239 -0.0105,-0.0145 -0.0204,-0.0289 -0.0311,-0.0432 -0.009,-0.0127 -0.0216,-0.0237 -0.0293,-0.0371 -0.0179,-0.0333 -0.0216,-0.0678 -0.0201,-0.10309 z"
         inkscape:connector-curvature="0"
         sodipodi:nodetypes="cccccccccccccccccccccccccccscsccscsccccccccccccccccccccccscccsccccccccccccccccccccccccccccccccccccccccccccccccccccccccccccc" />
      <path
         inkscape:connector-curvature="0"
         id="path10226"
         d="m 188.06489,271.30313 c -1.83396,-1.65199 -2.59404,-4.26342 -2.39726,-8.23635 0.15381,-3.10569 0.0265,-5.44875 -0.42803,-7.87642 -0.33821,-1.80655 -0.52356,-2.15465 -2.52728,-4.74647 -1.18928,-1.53831 -2.74806,-3.83883 -3.46397,-5.11225 -0.71591,-1.27341 -1.51411,-2.44486 -1.77377,-2.60322 -0.25967,-0.15835 -1.3879,-0.61569 -2.50716,-1.01632 -1.4862,-0.53195 -3.31792,-1.50297 -6.7916,-3.60029 -5.4772,-3.30702 -5.90626,-3.69114 -9.77483,-8.75025 -5.12195,-6.69824 -6.9391,-10.35837 -6.1614,-12.41037 0.94784,-2.50097 3.8271,-3.73398 11.90438,-5.09788 3.36148,-0.56761 7.86869,-1.42072 10.01602,-1.89578 3.34303,-0.73959 3.93272,-0.95356 4.10249,-1.48854 0.61105,-1.92562 4.7164,-9.21923 8.81824,-15.66662 7.5712,-11.90063 12.34979,-17.99514 31.52535,-40.2068 5.17843,-5.99831 10.76884,-12.52105 12.42313,-14.49497 9.88975,-11.80037 20.59121,-22.03386 28.97396,-27.70691 2.74885,-1.8603 2.61267,-1.86957 3.47476,0.23665 1.78556,4.3624 5.20442,7.93872 13.50756,14.12968 8.7003,6.48707 8.56912,6.39867 12.58395,8.47899 6.69969,3.47146 9.47345,4.15462 15.83965,3.90112 5.34256,-0.21273 7.23043,-1.0014 8.89952,-3.71784 1.73087,-2.81694 1.50365,-5.98334 -0.74955,-10.44581 -2.21156,-4.38001 -4.80791,-7.2996 -9.46724,-10.64592 -1.65941,-1.19179 -3.35573,-2.52634 -3.76959,-2.96566 -1.28572,-1.36487 -2.40497,-3.53238 -3.12584,-6.05345 -0.56945,-1.99153 -0.60681,-2.42649 -0.2104,-2.44957 1.45766,-0.0849 7.45808,1.82872 11.93468,3.8061 3.4614,1.52896 10.60362,5.98448 13.58198,8.47285 7.91236,6.61066 12.22221,14.02665 12.57106,21.63118 0.0401,0.87447 0.0256,1.66754 -0.0322,1.76237 -0.0579,0.0948 -0.8968,-0.31043 -1.86435,-0.90061 -3.26917,-1.99405 -5.48743,-1.57679 -6.85666,1.28976 -0.38935,0.81518 -0.95075,1.72099 -1.24758,2.0129 -0.29679,0.29195 -1.83788,0.86288 -3.42465,1.26876 -1.58676,0.40588 -3.11571,0.96576 -3.39767,1.24417 -0.61434,0.60663 -0.78318,2.09489 -0.3259,2.87239 0.48982,0.83276 2.90455,1.96539 6.32328,2.96593 1.7121,0.50107 3.16653,1.01675 3.23208,1.14595 0.0655,0.12924 -0.57956,0.81727 -1.43352,1.52905 -2.23019,1.85879 -4.87024,4.77444 -6.70122,7.40075 l -1.58709,2.27651 -1.29689,-0.58446 c -0.79999,-0.36054 -2.4237,-0.68943 -4.23793,-0.85844 -1.61758,-0.15067 -4.17794,-0.58751 -5.68969,-0.97067 -1.51175,-0.38319 -4.6318,-1.0391 -6.93344,-1.45757 -4.26506,-0.77545 -8.31972,-2.07429 -12.64063,-4.04922 -2.61177,-1.19374 -4.15375,-1.41698 -6.47099,-0.93684 -2.55233,0.52884 -9.47385,4.0219 -9.6243,4.85706 -0.0362,0.20085 0.14185,0.8252 0.39565,1.38743 1.17992,2.61385 1.86003,8.41831 1.50451,12.84043 -0.43339,5.39078 -1.64787,9.06971 -6.56925,19.89991 -5.27455,11.60737 -10.53345,20.19632 -16.33931,26.68572 -5.49683,6.14394 -10.25409,9.23146 -18.17397,11.79511 -6.40889,2.07455 -16.80533,3.48636 -23.43685,3.18264 l -2.21655,-0.1015 -5.52036,9.25859 c -5.79121,9.71284 -6.80971,11.6914 -7.11626,13.82429 -0.24952,1.73614 0.28667,4.26738 1.23942,5.85078 0.69274,1.1513 1.02907,1.44437 3.14471,2.74029 2.30846,1.41392 2.45273,1.46479 5.64126,1.98406 1.79973,0.2931 4.0156,0.7759 4.92415,1.07284 2.18112,0.71286 6.85671,3.13936 13.09162,6.79417 l 5.07295,2.97369 -1.16302,0.36303 c -1.26034,0.39339 -2.38217,1.0992 -4.51078,2.83805 -2.68097,2.19005 -6.22279,2.55494 -8.92051,0.91899 -1.8802,-1.13983 -2.80442,-2.90084 -5.32038,-10.13422 -0.20373,-0.58576 -0.45913,-0.91646 -0.66858,-0.86572 -0.18641,0.0452 -1.83686,0.90859 -3.66769,1.91871 -1.83082,1.01012 -3.78803,2.0182 -4.34935,2.24019 -1.39122,0.55018 -3.80829,0.7235 -5.28401,0.37889 -1.34379,-0.3138 -3.77443,-1.47823 -4.55688,-2.18304 z m 87.83747,-5.16835 c 0.84952,1.45894 -3.34572,-1.15126 -3.88182,-1.77783 -1.24789,-1.45851 -4.32706,-6.50645 -5.32809,-8.65925 -0.73894,-1.58912 -0.93918,-7.87492 -0.75896,-9.58534 2.45295,-7.27625 10.14923,-15.87989 19.06077,-30.93181 3.98978,-6.73888 6.27248,-10.30761 11.40789,-17.83513 3.53104,-5.17579 8.2766,-12.4235 10.54572,-16.10602 4.51719,-7.331 4.61614,-7.41815 3.37522,-2.97327 -1.18753,4.25368 -7.47358,21.35597 -13.20952,35.93891 -4.34483,11.0462 -5.57997,14.5368 -7.30592,20.64708 -3.58316,12.68524 -4.68615,17.76665 -4.79218,22.07744 -0.12,4.87764 -1.72588,9.01898 -3.88119,10.009 -1.57173,0.72198 -7.58742,-0.49903 -5.1817,-0.81594 z m 25.02942,-137.19105 c -1.10091,-1.46741 -0.96615,-3.49002 0.30444,-4.56964 1.57115,-1.33498 3.93277,-0.92545 5.02406,0.87125 0.49457,0.81423 0.4144,2.41339 -0.16877,3.36665 -0.57062,0.93359 -2.0684,1.60506 -3.19397,1.43272 -1.12133,-0.1717 -1.37527,-0.31391 -1.96576,-1.10099 z"
         style="fill:#594a4e;stroke-width:0.26458335"
         sodipodi:nodetypes="ccccccccccccssscccscscccccccccssccscccccccccsccccccccsccssccccsccccccsccccccccscccsscccccccsccc" />
      <path
         style="fill:none;fill-opacity:1;stroke:#2c2426;stroke-width:1.01499438;stroke-linecap:butt;stroke-linejoin:miter;stroke-miterlimit:4;stroke-dasharray:none;stroke-opacity:1"
         d="m 225.26418,275.41506 c 5.60083,3.24989 11.20141,6.49964 25.97869,-10.71794 14.77728,-17.21758 38.73133,-54.90211 51.28899,-75.88713 12.55767,-20.98503 13.71902,-25.27054 14.88037,-29.55601"
         id="path10897"
         inkscape:connector-curvature="0"
         inkscape:path-effect="#path-effect10899"
         inkscape:original-d="m 225.26418,275.41506 c 5.60095,3.24968 11.20153,6.49943 16.80176,9.74926 23.95442,-37.68464 47.90847,-75.36917 71.86217,-113.05362 1.16173,-4.28566 2.32309,-8.57116 3.48412,-12.85672"
         sodipodi:nodetypes="cccc" />
      <path
         inkscape:connector-curvature="0"
         id="path10222"
         d="m 187.65274,270.0544 c -1.04359,-1.12747 -1.61481,-3.83159 -1.45623,-6.8938 0.17466,-3.37281 0.10081,-4.90568 -0.37612,-7.80665 -0.36388,-2.21334 -0.44283,-2.37544 -2.35253,-4.83087 -1.0868,-1.39739 -2.74311,-3.82671 -3.68066,-5.39851 l -1.70465,-2.85783 -1.75256,-0.61997 c -2.7459,-0.97136 -7.73332,-3.53033 -10.12049,-5.19266 -2.93563,-2.04427 -4.73044,-3.9064 -8.06079,-8.36325 -5.88041,-7.86943 -6.73749,-10.47106 -4.1991,-12.74615 1.78808,-1.60261 4.132,-2.29298 12.31764,-3.62799 2.55536,-0.41675 6.3194,-1.12218 8.36454,-1.56764 l 3.71843,-0.80991 0.60153,-1.30347 c 1.98109,-4.29295 4.97242,-9.6155 8.41693,-14.97652 7.54705,-11.74612 13.03993,-18.75669 30.88906,-39.42361 5.44777,-6.3078 11.25837,-13.08386 12.91246,-15.0579 9.56483,-11.41513 20.18928,-21.7209 28.08605,-27.24363 3.55546,-2.48658 3.36561,-2.45637 4.12661,-0.65654 2.04101,4.82709 5.01126,7.80055 16.16346,16.18091 8.81074,6.62087 15.48024,9.91632 21.19492,10.47252 3.6538,0.3556 9.02014,-0.11825 10.80268,-0.95395 1.93009,-0.90488 3.2944,-2.32246 3.89907,-4.05136 1.00786,-2.88165 0.65019,-5.5612 -1.24015,-9.29068 -2.4662,-4.86566 -4.84061,-7.5778 -9.6222,-10.99084 -1.7555,-1.25305 -3.5682,-2.74311 -4.17126,-3.42881 -1.31721,-1.49775 -3.58312,-6.78388 -3.18659,-7.43399 0.15008,-0.24604 3.74225,0.61449 6.48977,1.55467 5.73022,1.96083 13.99591,6.65536 18.90994,10.73996 7.50074,6.23472 11.44949,12.75023 12.21262,20.15111 l 0.22166,2.14967 -1.73576,-0.89284 c -2.05062,-1.05479 -3.67497,-1.25278 -5.07234,-0.61831 -0.85099,0.38642 -1.12005,0.69377 -2.10704,2.40685 -0.63189,1.09683 -1.36452,2.0986 -1.65928,2.26908 -0.29029,0.16787 -1.45902,0.49754 -2.59716,0.73261 -2.67635,0.55273 -3.44438,0.91076 -4.04011,1.88335 -0.86033,1.4047 -0.31039,3.21127 1.27131,4.17606 0.42575,0.25968 2.39066,0.96284 4.36647,1.56256 1.97581,0.59973 3.60775,1.15387 3.62654,1.23144 0.0188,0.0776 -0.54206,0.61436 -1.24634,1.19286 -2.13338,1.75241 -4.56027,4.44039 -6.32298,7.0033 -0.70896,0.90233 -1.75923,2.06564 -2.89006,1.87059 -0.73146,-0.33536 -2.56602,-0.70295 -4.58633,-0.91911 -1.85197,-0.19809 -4.44851,-0.64529 -5.77011,-0.99367 -1.32158,-0.34839 -3.85186,-0.88732 -5.62283,-1.19761 -5.29941,-0.92851 -8.48792,-1.90662 -12.57199,-3.85659 -3.45803,-1.65106 -5.03667,-1.88169 -7.92338,-1.15758 -1.97485,0.49536 -7.65513,3.13348 -8.76477,4.07065 -0.1411,0.11917 -0.67408,-0.42813 -1.38725,-1.42454 -0.99599,-1.39155 -1.44331,-1.79165 -3.19553,-2.85816 -1.78419,-1.08594 -2.25557,-1.26137 -3.7926,-1.41115 -6.14893,-0.59924 -16.48158,5.64734 -25.52631,15.43186 -4.33859,4.69346 -6.71706,7.73849 -17.6877,22.64464 -7.40217,10.05756 -11.42824,14.06895 -26.46531,26.36875 -4.0402,3.30474 -4.91362,4.13106 -5.67643,5.37027 -1.46757,2.38411 -1.52551,4.7179 -0.16756,6.74828 1.64197,2.45506 7.90356,4.94981 14.94599,5.9548 1.40271,0.20012 2.56585,0.4279 2.58478,0.50605 0.10396,0.42909 -2.78884,5.66531 -6.49951,11.76472 -2.5562,4.20229 -4.41052,7.47234 -4.70017,8.29015 -1.06273,3.0004 -0.81092,5.92928 0.72879,8.47728 0.51949,0.85968 1.14399,1.42791 2.76809,2.51866 2.2338,1.50023 2.14393,1.47117 7.87398,2.5466 3.48578,0.6542 4.93443,1.29554 12.08939,5.35217 3.73631,2.11837 7.15236,4.006 7.59123,4.19471 0.43886,0.18875 0.77177,0.38606 0.73979,0.43848 -0.032,0.0524 -0.66809,0.40631 -1.41357,0.78638 -0.74547,0.38007 -1.91666,1.15588 -2.60262,1.72402 -2.70597,2.24118 -5.01392,2.93079 -7.53583,2.25172 -3.03681,-0.81771 -4.50499,-2.9263 -6.53607,-9.38712 -0.39288,-1.24972 -0.82173,-2.10358 -1.12198,-2.23394 -0.33114,-0.14378 -1.22506,0.21932 -2.80519,1.13939 -6.59638,3.84097 -9.45361,4.28844 -13.40641,2.09955 -1.02977,-0.57026 -2.18172,-1.37105 -2.55986,-1.7796 z"
         style="fill:#2c2426;stroke-width:0.26458335"
         sodipodi:nodetypes="cccsccscsccccccssscscccssssssccscccscscsccccccscccccsssccsscccccscscccccsccc" />
      <path
         style="fill:none;stroke:#2c2426;stroke-width:1.11438286;stroke-linecap:butt;stroke-linejoin:miter;stroke-miterlimit:4;stroke-dasharray:none;stroke-opacity:1"
         d="m 261.33413,111.00804 c 3.85232,-6.05134 7.70621,-12.105155 14.25773,-13.59263 6.55153,-1.487474 15.80218,1.589931 25.05215,4.66711"
         id="path10919"
         inkscape:connector-curvature="0"
         inkscape:path-effect="#path-effect10921"
         inkscape:original-d="m 261.33413,111.00804 c 3.79423,-6.08832 7.70643,-12.105013 11.55907,-18.157356 9.25026,3.077042 18.50091,6.15445 27.75081,9.231836" />
      <path
         style="fill:#ffffff;fill-opacity:1;stroke:none;stroke-width:1.66406262;stroke-linejoin:round;stroke-miterlimit:4;stroke-dasharray:none;stroke-opacity:1;paint-order:fill markers stroke"
         d="m 194.85238,260.15706 c -1.0846,-1.79515 -1.42314,-3.41465 -1.19803,-5.73119 0.19185,-1.97432 0.53556,-2.65133 6.32934,-12.46692 l 6.12646,-10.37925 3.32948,0.0637 c 5.06542,0.0968 12.4744,-0.82508 18.58947,-2.31313 14.4573,-3.51809 21.98978,-9.99418 32.08151,-27.58225 6.04406,-10.53372 11.59333,-23.19422 12.35942,-28.19765 l 0.23722,-1.54917 4.35722,2.09228 c 9.25883,4.44596 18.45223,6.65234 27.16023,6.51835 1.02049,-0.0157 1.96337,0.0373 2.09526,0.11774 0.1319,0.0805 -3.78069,6.46487 -8.69463,14.18758 -4.91396,7.72272 -11.31124,17.82145 -14.21619,22.44163 -26.36856,41.93806 -41.14817,59.49243 -50.4252,59.89219 -2.57439,0.11094 -4.71154,-0.7911 -13.5846,-5.73372 -9.01607,-5.0223 -10.57424,-5.68144 -15.71862,-6.64938 -3.94866,-0.74296 -7.61204,-2.69774 -8.82828,-4.71074 z"
         id="path10924"
         inkscape:connector-curvature="0" />
      <path
         style="fill:#ffffff;fill-opacity:1;stroke:none;stroke-width:1.66406262;stroke-linejoin:round;stroke-miterlimit:4;stroke-dasharray:none;stroke-opacity:1;paint-order:fill markers stroke"
         d="m 272.88141,169.80839 c 0.35726,-3.09019 -0.14695,-8.35811 -1.11626,-11.65376 l -0.7972,-2.71045 1.34838,-0.82733 c 0.74161,-0.45503 2.85393,-1.50023 4.69403,-2.32267 4.43057,-1.98027 6.07691,-1.92156 11.97429,0.42699 4.82848,1.92288 13.6347,4.0933 22.22743,5.47826 2.63432,0.4246 4.94333,0.97134 5.13113,1.21498 0.1878,0.24363 -0.2432,1.97515 -0.95692,3.8479 -1.44587,3.79174 -8.05335,16.59219 -8.90266,17.24684 -0.83144,0.64088 -7.50623,0.37861 -12.39045,-0.48685 -6.8979,-1.22229 -12.88196,-3.31434 -19.22591,-6.72149 l -2.25019,-1.2085 z"
         id="path10926"
         inkscape:connector-curvature="0" />
      <path
         style="fill:#ffffff;fill-opacity:1;stroke:none;stroke-width:1.66406262;stroke-linejoin:round;stroke-miterlimit:4;stroke-dasharray:none;stroke-opacity:1;paint-order:fill markers stroke"
         d="m 278.35539,125.63967 c -8.75751,-6.67005 -11.8984,-9.75345 -14.00832,-13.75193 -1.17411,-2.22503 -1.17451,-2.24242 -0.0918,-4.01144 0.59831,-0.97705 1.85843,-2.67634 2.80082,-3.77588 6.13203,-7.15462 12.12122,-7.939397 26.64982,-3.492 l 2.92584,0.89564 0.71908,2.51605 c 0.99442,3.4795 2.30193,5.15617 6.52271,8.3643 4.41201,3.35347 6.34979,5.39256 8.4526,8.89444 3.8524,6.41555 3.76194,11.34674 -0.26166,14.26382 -2.56168,1.85721 -12.19276,1.88643 -17.02135,0.0517 -3.83387,-1.45681 -11.65949,-6.12499 -16.6877,-9.95466 z m 25.70792,4.35736 c 2.17801,-0.52765 2.92381,-1.77938 2.38504,-4.00309 -0.34751,-1.43445 -0.62767,-1.80385 -1.65186,-2.17807 -1.48531,-0.54271 -2.50835,-0.43204 -3.56205,0.38535 -1.67761,1.30136 -1.37765,4.56792 0.53174,5.79076 0.3499,0.22408 1.3836,0.22635 2.2971,0.005 z"
         id="path10928"
         inkscape:connector-curvature="0" />
    </g>
  </g>
  <g
     transform="matrix(0.26458333,0,0,0.26458333,66.736652,151.75549)"
     id="g20" />
  <g
     transform="matrix(0.26458333,0,0,0.26458333,66.736652,151.75549)"
     id="g22" />
  <g
     transform="matrix(0.26458333,0,0,0.26458333,66.736652,151.75549)"
     id="g24" />
  <g
     transform="matrix(0.26458333,0,0,0.26458333,66.736652,151.75549)"
     id="g26" />
  <g
     transform="matrix(0.26458333,0,0,0.26458333,66.736652,151.75549)"
     id="g28" />
  <g
     transform="matrix(0.26458333,0,0,0.26458333,66.736652,151.75549)"
     id="g30" />
  <g
     transform="matrix(0.26458333,0,0,0.26458333,66.736652,151.75549)"
     id="g32" />
  <g
     transform="matrix(0.26458333,0,0,0.26458333,66.736652,151.75549)"
     id="g34" />
  <g
     transform="matrix(0.26458333,0,0,0.26458333,66.736652,151.75549)"
     id="g36" />
  <g
     transform="matrix(0.26458333,0,0,0.26458333,66.736652,151.75549)"
     id="g38" />
  <g
     transform="matrix(0.26458333,0,0,0.26458333,66.736652,151.75549)"
     id="g40" />
  <g
     transform="matrix(0.26458333,0,0,0.26458333,66.736652,151.75549)"
     id="g42" />
  <g
     transform="matrix(0.26458333,0,0,0.26458333,66.736652,151.75549)"
     id="g44" />
  <g
     transform="matrix(0.26458333,0,0,0.26458333,66.736652,151.75549)"
     id="g46" />
  <g
     transform="matrix(0.26458333,0,0,0.26458333,66.736652,151.75549)"
     id="g48" />
</svg>
