<?xml version="1.0" encoding="UTF-8" standalone="no"?>
<!-- Generator: Adobe Illustrator 19.0.0, SVG Export Plug-In . SVG Version: 6.00 Build 0)  -->

<svg
   xmlns:dc="http://purl.org/dc/elements/1.1/"
   xmlns:cc="http://creativecommons.org/ns#"
   xmlns:rdf="http://www.w3.org/1999/02/22-rdf-syntax-ns#"
   xmlns:svg="http://www.w3.org/2000/svg"
   xmlns="http://www.w3.org/2000/svg"
   xmlns:sodipodi="http://sodipodi.sourceforge.net/DTD/sodipodi-0.dtd"
   xmlns:inkscape="http://www.inkscape.org/namespaces/inkscape"
   version="1.1"
   id="Layer_1"
   x="0px"
   y="0px"
   viewBox="0 0 455.73 455.73"
   style="enable-background:new 0 0 455.73 455.73;"
   xml:space="preserve"
   sodipodi:docname="instagram.svg"
   inkscape:version="0.92.3 (unknown)"><metadata
   id="metadata4105"><rdf:RDF><cc:Work
       rdf:about=""><dc:format>image/svg+xml</dc:format><dc:type
         rdf:resource="http://purl.org/dc/dcmitype/StillImage" /></cc:Work></rdf:RDF></metadata><defs
   id="defs4103" /><sodipodi:namedview
   pagecolor="#ffffff"
   bordercolor="#666666"
   borderopacity="1"
   objecttolerance="10"
   gridtolerance="10"
   guidetolerance="10"
   inkscape:pageopacity="0"
   inkscape:pageshadow="2"
   inkscape:window-width="1855"
   inkscape:window-height="1056"
   id="namedview4101"
   showgrid="false"
   inkscape:zoom="0.51785047"
   inkscape:cx="227.86501"
   inkscape:cy="227.86501"
   inkscape:window-x="65"
   inkscape:window-y="24"
   inkscape:window-maximized="1"
   inkscape:current-layer="Layer_1" />
<path
   style="fill:#C536A4;"
   d="M227.86,182.55c-24.98,0-45.32,20.33-45.32,45.31c0,24.99,20.34,45.33,45.32,45.33  c24.99,0,45.32-20.34,45.32-45.33C273.18,202.88,252.85,182.55,227.86,182.55z M227.86,182.55c-24.98,0-45.32,20.33-45.32,45.31  c0,24.99,20.34,45.33,45.32,45.33c24.99,0,45.32-20.34,45.32-45.33C273.18,202.88,252.85,182.55,227.86,182.55z M303.36,108.66  H152.37c-24.1,0-43.71,19.61-43.71,43.71v150.99c0,24.1,19.61,43.71,43.71,43.71h150.99c24.1,0,43.71-19.61,43.71-43.71V152.37  C347.07,128.27,327.46,108.66,303.36,108.66z M227.86,306.35c-43.27,0-78.48-35.21-78.48-78.49c0-43.27,35.21-78.48,78.48-78.48  c43.28,0,78.49,35.21,78.49,78.48C306.35,271.14,271.14,306.35,227.86,306.35z M308.87,165.61c-10.24,0-18.57-8.33-18.57-18.57  s8.33-18.57,18.57-18.57s18.57,8.33,18.57,18.57S319.11,165.61,308.87,165.61z M227.86,182.55c-24.98,0-45.32,20.33-45.32,45.31  c0,24.99,20.34,45.33,45.32,45.33c24.99,0,45.32-20.34,45.32-45.33C273.18,202.88,252.85,182.55,227.86,182.55z M303.36,108.66  H152.37c-24.1,0-43.71,19.61-43.71,43.71v150.99c0,24.1,19.61,43.71,43.71,43.71h150.99c24.1,0,43.71-19.61,43.71-43.71V152.37  C347.07,128.27,327.46,108.66,303.36,108.66z M227.86,306.35c-43.27,0-78.48-35.21-78.48-78.49c0-43.27,35.21-78.48,78.48-78.48  c43.28,0,78.49,35.21,78.49,78.48C306.35,271.14,271.14,306.35,227.86,306.35z M308.87,165.61c-10.24,0-18.57-8.33-18.57-18.57  s8.33-18.57,18.57-18.57s18.57,8.33,18.57,18.57S319.11,165.61,308.87,165.61z M227.86,182.55c-24.98,0-45.32,20.33-45.32,45.31  c0,24.99,20.34,45.33,45.32,45.33c24.99,0,45.32-20.34,45.32-45.33C273.18,202.88,252.85,182.55,227.86,182.55z M0,0v455.73h455.73  V0H0z M380.23,303.36c0,42.39-34.48,76.87-76.87,76.87H152.37c-42.39,0-76.87-34.48-76.87-76.87V152.37  c0-42.39,34.48-76.87,76.87-76.87h150.99c42.39,0,76.87,34.48,76.87,76.87V303.36z M303.36,108.66H152.37  c-24.1,0-43.71,19.61-43.71,43.71v150.99c0,24.1,19.61,43.71,43.71,43.71h150.99c24.1,0,43.71-19.61,43.71-43.71V152.37  C347.07,128.27,327.46,108.66,303.36,108.66z M227.86,306.35c-43.27,0-78.48-35.21-78.48-78.49c0-43.27,35.21-78.48,78.48-78.48  c43.28,0,78.49,35.21,78.49,78.48C306.35,271.14,271.14,306.35,227.86,306.35z M308.87,165.61c-10.24,0-18.57-8.33-18.57-18.57  s8.33-18.57,18.57-18.57s18.57,8.33,18.57,18.57S319.11,165.61,308.87,165.61z M227.86,182.55c-24.98,0-45.32,20.33-45.32,45.31  c0,24.99,20.34,45.33,45.32,45.33c24.99,0,45.32-20.34,45.32-45.33C273.18,202.88,252.85,182.55,227.86,182.55z M227.86,182.55  c-24.98,0-45.32,20.33-45.32,45.31c0,24.99,20.34,45.33,45.32,45.33c24.99,0,45.32-20.34,45.32-45.33  C273.18,202.88,252.85,182.55,227.86,182.55z M227.86,182.55c-24.98,0-45.32,20.33-45.32,45.31c0,24.99,20.34,45.33,45.32,45.33  c24.99,0,45.32-20.34,45.32-45.33C273.18,202.88,252.85,182.55,227.86,182.55z M303.36,108.66H152.37  c-24.1,0-43.71,19.61-43.71,43.71v150.99c0,24.1,19.61,43.71,43.71,43.71h150.99c24.1,0,43.71-19.61,43.71-43.71V152.37  C347.07,128.27,327.46,108.66,303.36,108.66z M227.86,306.35c-43.27,0-78.48-35.21-78.48-78.49c0-43.27,35.21-78.48,78.48-78.48  c43.28,0,78.49,35.21,78.49,78.48C306.35,271.14,271.14,306.35,227.86,306.35z M308.87,165.61c-10.24,0-18.57-8.33-18.57-18.57  s8.33-18.57,18.57-18.57s18.57,8.33,18.57,18.57S319.11,165.61,308.87,165.61z M227.86,182.55c-24.98,0-45.32,20.33-45.32,45.31  c0,24.99,20.34,45.33,45.32,45.33c24.99,0,45.32-20.34,45.32-45.33C273.18,202.88,252.85,182.55,227.86,182.55z M227.86,182.55  c-24.98,0-45.32,20.33-45.32,45.31c0,24.99,20.34,45.33,45.32,45.33c24.99,0,45.32-20.34,45.32-45.33  C273.18,202.88,252.85,182.55,227.86,182.55z M227.86,182.55c-24.98,0-45.32,20.33-45.32,45.31c0,24.99,20.34,45.33,45.32,45.33  c24.99,0,45.32-20.34,45.32-45.33C273.18,202.88,252.85,182.55,227.86,182.55z M303.36,108.66H152.37  c-24.1,0-43.71,19.61-43.71,43.71v150.99c0,24.1,19.61,43.71,43.71,43.71h150.99c24.1,0,43.71-19.61,43.71-43.71V152.37  C347.07,128.27,327.46,108.66,303.36,108.66z M227.86,306.35c-43.27,0-78.48-35.21-78.48-78.49c0-43.27,35.21-78.48,78.48-78.48  c43.28,0,78.49,35.21,78.49,78.48C306.35,271.14,271.14,306.35,227.86,306.35z M308.87,165.61c-10.24,0-18.57-8.33-18.57-18.57  s8.33-18.57,18.57-18.57s18.57,8.33,18.57,18.57S319.11,165.61,308.87,165.61z M227.86,182.55c-24.98,0-45.32,20.33-45.32,45.31  c0,24.99,20.34,45.33,45.32,45.33c24.99,0,45.32-20.34,45.32-45.33C273.18,202.88,252.85,182.55,227.86,182.55z"
   id="path4068" />
<g
   id="g4070">
</g>
<g
   id="g4072">
</g>
<g
   id="g4074">
</g>
<g
   id="g4076">
</g>
<g
   id="g4078">
</g>
<g
   id="g4080">
</g>
<g
   id="g4082">
</g>
<g
   id="g4084">
</g>
<g
   id="g4086">
</g>
<g
   id="g4088">
</g>
<g
   id="g4090">
</g>
<g
   id="g4092">
</g>
<g
   id="g4094">
</g>
<g
   id="g4096">
</g>
<g
   id="g4098">
</g>
<path
   style="fill:#ffffff;stroke-width:1.93105936"
   d="m 205.27161,302.12665 c -12.36423,-4.08108 -20.24207,-8.80522 -30.17162,-18.09315 -39.96878,-37.38611 -29.39351,-103.00068 20.35283,-126.27981 22.38377,-10.47462 50.37875,-9.23827 71.53336,3.15916 11.72555,6.87163 25.49344,22.23174 31.59411,35.2479 4.58342,9.77901 5.17535,13.36098 5.17535,31.31804 0,18.77173 -0.45482,21.23618 -6.12995,33.2156 -7.55383,15.9451 -19.6548,28.33225 -35.71184,36.55642 -10.8392,5.55166 -14.31126,6.32893 -30.57294,6.84416 -11.54269,0.36571 -21.20922,-0.36414 -26.0693,-1.96832 z m 46.8804,-35.38087 c 23.40278,-14.46883 28.51313,-47.30937 10.61557,-68.21865 -24.00251,-28.04152 -68.58612,-18.80595 -78.79845,16.32324 -6.75616,23.24035 5.5672,47.79838 28.32589,56.44796 10.75544,4.08767 29.30965,1.96836 39.85699,-4.55255 z"
   id="path4107"
   inkscape:connector-curvature="0" /><path
   style="fill:#ffffff;stroke-width:1.93105936"
   d="m 303.29717,163.3894 c -6.80758,-1.81247 -12.09342,-9.58254 -12.09342,-17.77705 0,-7.08066 7.49178,-14.62621 15.84166,-15.95538 6.17943,-0.98366 7.95178,-0.33856 13.03465,4.7443 13.70612,13.70612 1.96813,33.98048 -16.78289,28.98813 z"
   id="path4109"
   inkscape:connector-curvature="0" /><path
   style="fill:#ffffff;stroke-width:1.93105936"
   d="M 135.75347,377.41043 C 113.26678,371.81536 92.794617,355.01188 82.99704,334.10817 L 77.821693,323.06623 V 227.47879 131.89135 L 83.496249,120.305 C 90.738071,105.51859 105.51859,90.738071 120.305,83.496249 l 11.58635,-5.674556 h 95.58744 95.58744 l 11.04194,5.175347 c 22.5181,10.554238 39.13697,31.99208 43.9511,56.69564 1.55715,7.99047 2.05038,37.19139 1.61324,95.51035 -0.59942,79.97293 -0.82299,84.4728 -4.66254,93.83804 -9.03137,22.02898 -23.67052,36.81406 -45.18503,45.63537 -10.42509,4.27448 -12.22223,4.36193 -97.5185,4.74556 -63.98365,0.28778 -89.44367,-0.24266 -96.55297,-2.01157 z M 324.2642,341.80867 c 7.51777,-3.92733 11.9135,-7.95834 16.15175,-14.81161 l 5.82299,-9.41581 0.5502,-87.05176 c 0.62501,-98.89021 0.77453,-97.72201 -14.19438,-110.89818 -4.68831,-4.12681 -12.22606,-8.5311 -16.75059,-9.78731 -5.91005,-1.6409 -31.92271,-2.1209 -92.38224,-1.70469 l -84.15583,0.57933 -9.4495,5.84423 c -5.85087,3.61858 -11.67515,9.44286 -15.29373,15.29373 l -5.84423,9.4495 -0.57933,84.15583 c -0.41227,59.8873 0.0712,86.49923 1.67662,92.282 2.9045,10.46224 13.92206,23.28679 23.89872,27.81832 7.22899,3.28351 14.46836,3.56068 94.0264,3.59982 l 86.1944,0.0425 10.32875,-5.3958 z"
   id="path4111"
   inkscape:connector-curvature="0" /></svg>