<?xml version="1.0" encoding="UTF-8" standalone="no"?>
<!-- Created with Inkscape (http://www.inkscape.org/) -->

<svg
   xmlns:dc="http://purl.org/dc/elements/1.1/"
   xmlns:cc="http://creativecommons.org/ns#"
   xmlns:rdf="http://www.w3.org/1999/02/22-rdf-syntax-ns#"
   xmlns:svg="http://www.w3.org/2000/svg"
   xmlns="http://www.w3.org/2000/svg"
   xmlns:sodipodi="http://sodipodi.sourceforge.net/DTD/sodipodi-0.dtd"
   xmlns:inkscape="http://www.inkscape.org/namespaces/inkscape"
   width="458mm"
   height="310mm"
   viewBox="0 0 458 310"
   version="1.1"
   id="svg9664"
   inkscape:version="0.92.3 (unknown)"
   sodipodi:docname="penguinWork.svg">
  <defs
     id="defs9658">
    <inkscape:path-effect
       effect="bspline"
       id="path-effect10921"
       is_visible="true"
       weight="33.333333"
       steps="2"
       helper_size="0"
       apply_no_weight="true"
       apply_with_weight="true"
       only_selected="false" />
    <inkscape:path-effect
       effect="bspline"
       id="path-effect10899"
       is_visible="true"
       weight="33.333333"
       steps="2"
       helper_size="0"
       apply_no_weight="true"
       apply_with_weight="true"
       only_selected="false" />
  </defs>
  <sodipodi:namedview
     id="base"
     pagecolor="#ffffff"
     bordercolor="#666666"
     borderopacity="1.0"
     inkscape:pageopacity="0.0"
     inkscape:pageshadow="2"
     inkscape:zoom="0.64"
     inkscape:cx="746.3805"
     inkscape:cy="582.80521"
     inkscape:document-units="mm"
     inkscape:current-layer="layer2"
     showgrid="false"
     inkscape:snap-global="false"
     inkscape:window-width="1855"
     inkscape:window-height="1056"
     inkscape:window-x="65"
     inkscape:window-y="24"
     inkscape:window-maximized="1" />
  <metadata
     id="metadata9661">
    <rdf:RDF>
      <cc:Work
         rdf:about="">
        <dc:format>image/svg+xml</dc:format>
        <dc:type
           rdf:resource="http://purl.org/dc/dcmitype/StillImage" />
        <dc:title></dc:title>
      </cc:Work>
    </rdf:RDF>
  </metadata>
  <g
     inkscape:groupmode="layer"
     id="layer4"
     inkscape:label="Backpack"
     transform="translate(0,13)">
    <g
       inkscape:groupmode="layer"
       id="layer7"
       inkscape:label="pipe">
      <path
         style="fill:#696969;fill-opacity:0.97126435;stroke:#000000;stroke-width:1.20599997;stroke-linejoin:round;stroke-miterlimit:4;stroke-dasharray:none;stroke-opacity:1;paint-order:stroke markers fill"
         d="m 145.54466,79.001924 -35.96886,16.459978 4.00389,8.748828 0.49919,-0.22841 15.89257,35.51876 8.78241,-3.92948 -15.92512,-35.593172 26.71981,-12.227167 z"
         id="rect10438-2"
         inkscape:connector-curvature="0" />
    </g>
    <g
       inkscape:groupmode="layer"
       id="layer5"
       inkscape:label="top">
      <rect
         style="fill:#ffffff;fill-opacity:0.97126435;stroke:#000000;stroke-width:1.40788031;stroke-miterlimit:4;stroke-dasharray:none;stroke-opacity:1"
         id="rect10399-2"
         width="23.515972"
         height="49.913288"
         x="141.11526"
         y="96.88205"
         transform="matrix(0.99698905,0.07754251,-0.15013305,0.9886658,0,0)" />
    </g>
    <g
       inkscape:groupmode="layer"
       id="layer6"
       inkscape:label="bottom">
      <rect
         style="fill:#ffffff;fill-opacity:0.97126435;stroke:#000000;stroke-width:1.5289979;stroke-miterlimit:4;stroke-dasharray:none;stroke-opacity:1"
         id="rect10399"
         width="39.622372"
         height="84.099564"
         x="134.25211"
         y="119.62776"
         transform="matrix(0.9991193,0.0419598,-0.11480087,0.99338852,0,0)" />
    </g>
    <g
       inkscape:groupmode="layer"
       id="layer8"
       inkscape:label="grills">
      <rect
         style="fill:#696969;fill-opacity:0.97126435;stroke:#000000;stroke-width:1.20599997;stroke-linejoin:round;stroke-miterlimit:4;stroke-dasharray:none;stroke-opacity:1;paint-order:fill markers stroke"
         id="rect10736"
         width="24.588797"
         height="7.4835467"
         x="131.34401"
         y="183.39098"
         transform="rotate(4.3665108)" />
      <rect
         style="fill:#696969;fill-opacity:0.97126435;stroke:#000000;stroke-width:1.20599997;stroke-linejoin:round;stroke-miterlimit:4;stroke-dasharray:none;stroke-opacity:1;paint-order:fill markers stroke"
         id="rect10736-8"
         width="24.588797"
         height="7.4835467"
         x="131.68134"
         y="166.74631"
         transform="rotate(4.3665108)" />
      <circle
         style="fill:#ff0000;fill-opacity:0.97126435;stroke:#000000;stroke-width:1.20599997;stroke-linejoin:round;stroke-miterlimit:4;stroke-dasharray:none;stroke-opacity:1;paint-order:fill markers stroke"
         id="path10766"
         cx="130.04297"
         cy="137.65732"
         r="3.7417734" />
      <circle
         style="fill:#0000ff;fill-opacity:0.97126435;stroke:#000000;stroke-width:1.20599997;stroke-linejoin:round;stroke-miterlimit:4;stroke-dasharray:none;stroke-opacity:1;paint-order:fill markers stroke"
         id="path10766-2"
         cx="128.43935"
         cy="151.02081"
         r="3.7417734" />
    </g>
  </g>
  <g
     inkscape:label="Penguin"
     inkscape:groupmode="layer"
     id="layer1"
     transform="translate(0,13)">
    <g
       inkscape:groupmode="layer"
       id="layer2"
       inkscape:label="Penguin Outline">
      <path
         id="path10230"
         style="fill:#b8872b;stroke-width:0.26458335"
         d="m 224.11611,65.155638 c -0.64392,0.812028 -1.67645,1.561365 -3.1533,2.117183 -0.98946,0.37238 -2.13295,0.700309 -3.1657,1.193726 -0.0984,0.187917 -0.21012,0.380693 -0.26407,0.528134 -0.21034,0.574943 -0.49606,1.11927 -0.74414,1.678967 -0.37623,0.562634 -0.75238,1.125638 -1.12861,1.688269 -0.42236,0.462952 -0.89987,0.880766 -1.26711,1.388547 -0.042,0.05802 0.20334,0.03049 0.18966,0.100766 -0.0658,0.337868 -0.25741,0.638347 -0.39481,0.953947 -0.76523,1.758008 -0.46631,1.118653 -1.60714,2.942974 -0.0777,0.165656 -0.14042,0.339349 -0.23306,0.497128 -0.45791,0.779833 -0.62648,1.078654 -0.65887,1.123445 -0.0351,0.07465 -0.071,0.148984 -0.10594,0.223758 0.53713,-0.222655 0.34637,-0.143618 -0.21394,0.321429 -0.0148,0.466199 -0.60488,2.618338 -0.69608,3.19722 -0.0506,0.321048 -0.0448,0.648308 -0.0672,0.97255 0.11353,1.102058 -0.18013,2.214181 -0.63976,3.224609 0.16308,1.632569 0.0697,3.276849 0.0486,4.914429 0,0.768882 0.0139,1.53743 0.0109,2.30632 -0.003,1.493129 0,2.986189 0,4.479319 5e-5,0.54692 -1e-4,1.093812 0,1.640732 5e-5,0.44528 0,0.89057 0,1.33583 3e-5,0.40635 3e-5,0.81272 0,1.21905 v 1.54616 c 1.65013,-0.60194 3.49634,-1.23824 4.6364,-1.59215 1.52798,-0.47433 4.01742,-1.4733 5.53248,-2.2195 2.13863,-1.053302 3.03507,-1.356512 4.00699,-1.356512 1.51043,0 1.57303,-0.11512 1.57303,-2.88562 0,-2.842441 0.66452,-6.531537 1.76786,-9.814389 0.51352,-1.527961 0.96494,-2.811756 1.00304,-2.853055 0.0381,-0.0413 3.44858,-0.735105 7.57886,-1.541507 8.10805,-1.583018 9.01533,-1.908382 9.66504,-3.463354 0.31065,-0.743532 0.31641,-1.020839 0.0336,-1.613339 -0.2992,-0.626811 -1.01351,-0.950558 -5.76347,-2.61276 -2.98198,-1.043509 -6.77267,-2.29112 -8.42377,-2.772442 -2.86018,-0.833787 -3.02521,-0.920687 -3.49591,-1.843297 -0.69795,-1.368094 -2.3846,-3.43949 -4.0225,-5.026567 z m -6.80114,3.56154 c -0.25392,0.141748 -0.50133,0.292436 -0.73019,0.464572 -0.18153,0.136559 0.46729,-0.113472 0.62115,-0.280604 0.0443,-0.04807 0.0784,-0.113258 0.10904,-0.183968 z m -6.21513,11.042219 c -0.0495,0.150334 -0.10034,0.300085 -0.14934,0.45062 0.0414,-0.07977 0.0786,-0.161198 0.10284,-0.247531 0.0138,-0.04891 0.0311,-0.138205 0.0465,-0.203089 z m 0.15813,0.248047 c -0.10389,0.0883 -0.21612,0.186542 -0.33899,0.298691 -0.0908,0.278884 -0.182,0.557527 -0.27596,0.835091 0.0709,-0.04413 0.13976,-0.09073 0.20361,-0.143145 0.19941,-0.163716 0.3262,-0.681757 0.41134,-0.990637 z M 200.25466,248.47609 c -2.29922,0.0443 -2.16772,0.36071 -8.56655,3.71362 0.0235,0.0451 0.0453,0.0923 0.0651,0.14314 0.3727,0.27397 0.82737,0.84746 0.74259,1.15342 0.776,0.0994 1.23222,0.73345 1.13017,2.25568 1.28528,0.72213 1.70063,1.13033 2.18384,2.14612 0.72065,1.51492 2.30228,3.14193 4.5129,4.64312 2.08107,1.41322 5.07232,2.85237 6.39186,3.07528 1.31467,0.22212 2.57299,-0.40608 3.04064,-1.51826 0.55033,-1.30884 0.11278,-2.06939 -1.85053,-3.21789 -2.56736,-1.50167 -2.15627,-2.23525 0.75706,-1.35133 2.81784,0.85495 5.26911,1.23166 6.01204,0.92395 0.74689,-0.30938 1.30947,-1.23259 1.30948,-2.14974 0,-0.96581 -1.57125,-2.19689 -3.65043,-2.85978 -2.19839,-0.70085 -2.39606,-1.1724 -0.7307,-1.74355 2.48447,-0.85201 3.11437,-2.17327 1.47071,-3.08508 -0.79418,-0.44061 -1.26516,-0.49219 -3.30729,-0.36432 -1.30968,0.082 -2.76822,0.22306 -3.24115,0.31368 -0.7634,0.14629 -0.8599,0.0982 -0.85989,-0.4284 -1.1492,1.40698 -3.93756,-1.67802 -5.40986,-1.64966 z m -8.46371,3.95391 c 0.0112,0.0359 0.0191,0.0758 0.0284,0.11421 0.0414,0.0292 0.0884,0.0617 0.11937,0.0858 -0.0246,-0.0642 -0.0536,-0.12489 -0.10284,-0.17053 -0.0115,-0.0107 -0.0286,-0.02 -0.045,-0.0295 z m -9.31208,4.30835 c -5.32715,2.38204 -10.33017,4.00378 -13.57592,3.27835 1.25146,1.36929 1.29927,1.47798 1.14515,2.60244 -0.23026,1.67992 0.53771,3.03646 2.60604,4.60332 0.91179,0.6907 2.33403,1.89069 3.16105,2.6665 0.85521,0.80219 2.3355,1.80909 3.43235,2.33474 3.83819,1.83941 5.61546,0.73665 3.69487,-2.29132 -0.41925,-0.66112 -1.14039,-1.47074 -1.60197,-1.79938 -0.99939,-0.71168 -1.00622,-1.51612 -0.0114,-1.37459 0.36022,0.0512 1.87687,0.55724 3.36982,1.12448 3.19195,1.21272 4.07177,1.28034 4.97024,0.38187 0.99464,-0.99465 0.88365,-2.26465 -0.31368,-3.58994 -0.5297,-0.58632 -1.3036,-1.26725 -1.71979,-1.5131 -1.04771,-0.61886 -0.93225,-1.16647 0.37724,-1.788 0.90556,-0.42982 1.12972,-0.68056 1.19372,-1.33427 0.0688,-0.70231 -0.0492,-0.86598 -0.92604,-1.28521 -0.56651,-0.27088 -1.89909,-0.54187 -3.05511,-0.62167 -1.51802,-0.10483 -2.05052,-0.23834 -2.05052,-0.51366 0.0748,0.007 0.15949,0.003 0.24805,-0.009 -0.0339,-0.009 -0.0667,-0.0209 -0.0925,-0.046 -0.0229,-0.0285 0.0277,0.034 -0.0584,-0.0661 -0.002,-0.003 5.3e-4,-0.005 5.3e-4,-0.007 -5.3e-4,-0.0138 2.6e-4,-0.01 0.002,-0.0164 -0.001,-0.003 -0.002,-0.003 -0.003,-0.005 -5.3e-4,-0.003 0.001,0 0.003,0.003 3e-5,-3e-5 -1e-5,0 0,0 -0.0372,-0.0504 0.007,0.0214 -0.0331,-0.046 -0.0162,-0.0348 -0.0303,-0.073 -0.0599,-0.0987 -0.0213,-0.0217 -0.0416,-0.044 -0.0615,-0.0672 -0.008,-0.009 -0.0134,-0.0193 -0.0227,-0.0265 -0.01,-0.007 -0.0204,-0.0135 -0.0305,-0.0201 -0.007,-0.007 -0.0155,-0.0135 -0.0227,-0.0206 -0.004,-0.004 -0.007,-0.0101 -0.0114,-0.014 -0.008,-0.008 -0.0186,-0.0135 -0.0274,-0.0206 -0.0188,-0.0153 -0.037,-0.0306 -0.0579,-0.0434 -0.0289,-0.0288 -0.0584,-0.0569 -0.0868,-0.0863 -0.0167,-0.0172 -0.0327,-0.0353 -0.0501,-0.0517 -0.0118,-0.0111 -0.0252,-0.0201 -0.0367,-0.0315 -0.002,-0.003 -0.003,-0.005 -0.005,-0.007 -0.0264,-0.014 -0.0276,-0.0127 -0.0501,-0.0305 -0.0118,-0.009 -0.0228,-0.0193 -0.0346,-0.029 -0.005,-0.004 -0.009,-0.009 -0.015,-0.0124 -0.008,-0.005 -0.0177,-0.008 -0.0264,-0.0119 -0.0165,-0.007 -0.0325,-0.014 -0.0491,-0.0206 -0.0146,-0.006 -0.0308,-0.009 -0.0444,-0.0164 -0.0326,-0.0191 -0.0537,-0.0467 -0.0708,-0.0775 z"
         inkscape:connector-curvature="0"
         sodipodi:nodetypes="cccccccccccccccccccccccccccscsccscsccccccccccccccccccccccscccsccccccccccccccccccccccccccccccccccccccccccccccccccccccccccccc" />
      <path
         inkscape:connector-curvature="0"
         id="path10226"
         d="m 173.2753,262.82796 c -2.42593,-0.45533 -4.43469,-2.28896 -6.33554,-5.7832 -1.48592,-2.73148 -2.81473,-4.66549 -4.46693,-6.50136 -1.22947,-1.36616 -1.56898,-1.56682 -4.62924,-2.7361 -1.81636,-0.694 -4.34508,-1.84628 -5.61938,-2.56062 -1.2743,-0.71433 -2.56575,-1.29877 -2.86989,-1.29875 -0.30414,3e-5 -1.50548,0.19709 -2.66964,0.43791 -1.5458,0.31978 -3.61522,0.44464 -7.67292,0.46298 -6.39806,0.0289 -6.96438,-0.0756 -12.90151,-2.38015 -7.86071,-3.05124 -11.31799,-5.22971 -11.72261,-7.38652 -0.49315,-2.6287 1.32286,-5.18067 7.50836,-10.55118 2.57418,-2.23502 5.97783,-5.31039 7.56366,-6.83415 2.46888,-2.37223 2.86089,-2.86197 2.72724,-3.40709 -0.48107,-1.96214 -0.77429,-10.32663 -0.62985,-17.96685 0.26661,-14.10238 1.17256,-21.79376 5.97672,-50.74164 1.29738,-7.81746 2.67341,-16.29716 3.05783,-18.84378 2.2982,-15.22413 6.1053,-29.533272 10.30766,-38.741657 1.37802,-3.01959 1.25693,-2.95659 3.0897,-1.60739 3.79601,2.79446 8.57707,4.06732 18.88947,5.02892 10.80565,1.00759 10.64762,1.00044 15.15845,0.68579 7.52737,-0.52511 10.25111,-1.38628 15.55406,-4.9178 4.45027,-2.96367 5.65129,-4.62005 5.66167,-7.80828 0.0108,-3.306198 -1.83204,-5.891088 -6.07939,-8.527458 -4.16888,-2.58767 -7.90576,-3.72817 -13.62606,-4.15871 -2.03728,-0.15334 -4.1804,-0.40934 -4.76249,-0.56889 -1.80838,-0.49569 -3.8926,-1.76331 -5.82083,-3.54021 -1.52321,-1.40367 -1.78161,-1.75555 -1.4552,-1.98168 1.20024,-0.83151 7.31938,-2.32246 12.17083,-2.96546 3.75124,-0.49717 12.16883,-0.4126 16.00729,0.16083 10.19733,1.5234 17.73849,5.61029 21.99625,11.92075 0.48961,0.72567 0.89021,1.41028 0.89021,1.52136 0,0.11108 -0.92727,0.20197 -2.06061,0.20197 -3.82931,0 -5.5058,1.51135 -5.18203,4.67159 0.0921,0.898678 0.0845,1.964328 -0.0169,2.368108 -0.10134,0.40379 -1.11969,1.69371 -2.26299,2.8665 -1.1433,1.17279 -2.15705,2.44694 -2.25278,2.83145 -0.20858,0.8378 0.42227,2.19628 1.21756,2.62191 0.85182,0.45587 3.50312,0.16538 6.94277,-0.76068 1.72257,-0.46378 3.23278,-0.78091 3.35602,-0.70474 0.12325,0.0762 -0.0692,0.99951 -0.42759,2.05186 -0.93602,2.74822 -1.6716,6.61212 -1.86713,9.807715 l -0.16948,2.76995 -1.41152,0.176372 c -0.87072,0.10878 -2.42817,0.67352 -4.06502,1.47397 -1.45942,0.7137 -3.87271,1.67406 -5.36286,2.13414 -1.49015,0.46008 -4.49535,1.52484 -6.67821,2.36612 -4.04496,1.55895 -8.18286,2.56151 -12.90011,3.12552 -2.85134,0.34092 -4.28401,0.9533 -6.01226,2.56987 -1.90357,1.78057 -5.99366,8.36694 -5.68721,9.15827 0.0737,0.19032 0.55082,0.63062 1.06027,0.97845 2.36844,1.61706 5.97164,6.21828 7.97088,10.17866 2.43716,4.82789 3.31609,8.60109 4.75428,20.40976 1.54138,12.65607 1.52431,22.72711 -0.053,31.29054 -1.49339,8.10758 -3.94698,13.22073 -9.37334,19.53352 -4.3911,5.10841 -12.53157,11.72748 -18.35117,14.92146 l -1.94517,1.06758 0.10843,10.77887 c 0.11375,11.30772 0.27455,13.52722 1.1235,15.50774 0.69103,1.61211 2.46692,3.49385 4.10483,4.34951 1.19092,0.62215 1.63066,0.69721 4.11166,0.70187 2.70705,0.005 2.8567,-0.0267 5.84922,-1.24376 1.6891,-0.68694 3.83223,-1.42866 4.7625,-1.64827 2.23328,-0.52721 7.48847,-0.8904 14.71452,-1.01695 l 5.87937,-0.10296 -0.80385,0.91554 c -0.87112,0.99215 -1.4613,2.17889 -2.37306,4.77182 -1.14836,3.26576 -3.98207,5.42161 -7.13706,5.42977 -2.19871,0.006 -3.90476,-1.01614 -9.81934,-5.88127 -0.47896,-0.39398 -0.86921,-0.54331 -1.0216,-0.39092 -0.13562,0.13562 -1.09503,1.73219 -2.13203,3.54792 -1.037,1.81573 -2.18296,3.69554 -2.54658,4.17735 -0.90121,1.19416 -2.87446,2.60078 -4.31375,3.07504 -1.31063,0.43186 -3.99208,0.70348 -5.02709,0.50922 z m 72.29716,-50.15232 c 1.48497,0.80315 -3.45581,0.75938 -4.23976,0.50363 -1.82485,-0.59534 -7.08222,-3.30143 -9.05786,-4.61804 -1.45836,-0.97188 -4.90254,-6.23391 -5.63936,-7.78797 -1.69486,-7.48921 0.39538,-18.84202 0.16528,-36.33267 -0.10302,-7.83072 -0.0126,-12.0661 0.45176,-21.16667 0.3193,-6.25739 0.59655,-14.91608 0.61612,-19.24153 0.0389,-8.61087 0.078,-8.73679 1.33321,-4.29592 1.20121,4.24984 4.74045,22.12373 7.43741,37.56037 2.04287,11.69284 2.80608,15.31602 4.51444,21.43125 3.54663,12.69549 5.25106,17.60795 7.40531,21.34337 2.43751,4.22661 3.22308,8.59839 1.89859,10.56594 -0.96586,1.43482 -6.73739,3.525 -4.84861,2.0017 z M 195.50043,82.519383 c -1.704,-0.67948 -2.6422,-2.47639 -2.11966,-4.05972 0.64615,-1.957848 2.87557,-2.837998 4.74282,-1.872398 0.84622,0.437588 1.61052,1.844568 1.60905,2.962058 -0.001,1.09417 -0.93002,2.44736 -1.98068,2.88635 -1.04671,0.43734 -1.33756,0.44816 -2.25153,0.0837 z"
         style="fill:#594a4e;stroke-width:0.26458335"
         sodipodi:nodetypes="ccccccccccccssscccscscccccccccssccscccccccccsccccccccsccssccccsccccccsccccccccscccsscccccccsccc" />
      <path
         style="fill:none;fill-opacity:1;stroke:#2c2426;stroke-width:1.01499438;stroke-linecap:butt;stroke-linejoin:miter;stroke-miterlimit:4;stroke-dasharray:none;stroke-opacity:1"
         d="m 207.17426,246.96743 c 6.47386,-0.14205 12.94744,-0.28409 16.59729,-22.6781 3.64985,-22.394 4.47624,-67.03969 4.26932,-91.49422 -0.20691,-24.45452 -1.44705,-28.71789 -2.68718,-32.981232"
         id="path10897"
         inkscape:connector-curvature="0"
         inkscape:path-effect="#path-effect10899"
         inkscape:original-d="m 207.17426,246.96743 c 6.47385,-0.1423 12.94743,-0.28434 19.42075,-0.42612 0.82665,-44.64598 1.65304,-89.29167 2.47916,-133.93711 -1.2399,-4.2637 -2.48003,-8.52707 -3.72048,-12.790322"
         sodipodi:nodetypes="cccc" />
      <path
         inkscape:connector-curvature="0"
         id="path10222"
         d="m 172.27319,261.97651 c -1.47805,-0.41911 -3.37384,-2.43022 -4.83305,-5.12706 -1.60723,-2.97038 -2.4685,-4.24057 -4.3863,-6.46883 -1.46322,-1.70008 -1.61502,-1.79736 -4.524,-2.89916 -1.65549,-0.62703 -4.33454,-1.8385 -5.95343,-2.69216 l -2.94346,-1.55211 -1.81904,0.38334 c -2.85004,0.60061 -8.44045,1.0131 -11.34405,0.83701 -3.57073,-0.21654 -6.07266,-0.87166 -11.23668,-2.94232 -9.1181,-3.65615 -11.20456,-5.4309 -10.22221,-8.69502 0.69199,-2.29929 2.33354,-4.10923 8.62659,-9.5115 1.96454,-1.68645 4.81062,-4.24876 6.32463,-5.69403 l 2.75275,-2.62775 -0.16523,-1.42603 c -0.54419,-4.6966 -0.76207,-10.79824 -0.61309,-17.16873 0.32644,-13.95788 1.36518,-22.80327 5.84133,-49.74167 1.36618,-8.22193 2.79827,-17.03255 3.18243,-19.57917 2.22144,-14.72604 5.92516,-29.056792 9.7909,-37.883783 1.74052,-3.97428 1.59417,-3.84963 3.18108,-2.70937 4.25608,3.05816 8.34022,4.04995 22.225,5.39709 10.96962,1.06431 18.37954,0.40465 23.54791,-2.09633 3.30451,-1.59905 7.63908,-4.79805 8.72569,-6.43974 1.17656,-1.77758 1.60311,-3.698239 1.21903,-5.489113 -0.64015,-2.984937 -2.34084,-5.086262 -5.89672,-7.285837 -4.63916,-2.869669 -8.07854,-3.948634 -13.93796,-4.372465 -2.15121,-0.155603 -4.47467,-0.48376 -5.34658,-0.755129 -1.90446,-0.592735 -6.59158,-3.92567 -6.59158,-4.687167 0,-0.288198 3.5148,-1.424114 6.35,-2.052194 5.91307,-1.309923 15.41425,-1.606348 21.73644,-0.67815 9.65015,1.416792 16.41413,4.92297 20.91951,10.843846 l 1.30865,1.719792 -1.94679,0.141637 c -2.29991,0.167328 -3.78975,0.844155 -4.65229,2.113518 -0.52529,0.773042 -0.59495,1.175534 -0.5455,3.151985 0.0317,1.265432 -0.0721,2.50217 -0.23497,2.801202 -0.16041,0.294484 -0.9865,1.184524 -1.83575,1.977866 -1.99702,1.865549 -2.46626,2.571139 -2.46839,3.711689 -0.003,1.64721 1.40722,2.90315 3.25996,2.90315 0.4987,0 2.54234,-0.4229 4.54142,-0.93978 1.99908,-0.51687 3.68086,-0.8936 3.7373,-0.83716 0.0564,0.0564 -0.14285,0.80676 -0.44286,1.66738 -0.90878,2.60699 -1.58092,6.16554 -1.75119,9.27144 -0.13538,1.139521 -0.42624,2.679561 -1.49322,3.101911 -0.79909,0.0946 -2.55671,0.736092 -4.39405,1.603602 -1.68423,0.79523 -4.13379,1.7656 -5.44348,2.15638 -1.30969,0.39077 -3.75047,1.24828 -5.42396,1.90558 -5.00772,1.9669 -8.23914,2.79223 -12.7412,3.25423 -3.81195,0.39118 -5.27976,1.01633 -7.36713,3.13772 -1.42801,1.45127 -4.90361,6.66141 -5.36292,8.03932 -0.0584,0.17521 -0.79842,-0.0145 -1.92612,-0.49377 -1.57493,-0.66935 -2.16517,-0.77799 -4.21643,-0.77605 -2.08869,0.002 -2.58247,0.0977 -3.97265,0.77021 -5.5615,2.69038 -11.12987,13.40377 -13.75639,26.4669 -1.25989,6.26615 -1.70479,10.1043 -3.30848,28.54275 -1.08205,12.44089 -2.43032,17.962 -8.86281,36.29289 -1.7283,4.92519 -2.04366,6.08545 -2.04959,7.54062 -0.0114,2.79957 1.15442,4.82214 3.37101,5.84839 2.68022,1.2409 9.32496,0.11008 15.86055,-2.69918 1.30174,-0.55954 2.41333,-0.97082 2.47019,-0.91396 0.31219,0.31219 0.56924,6.28883 0.57754,13.42829 0.006,4.91868 0.12576,8.67599 0.30434,9.525 0.65515,3.11489 2.39528,5.4842 5.0366,6.8577 0.89116,0.46341 1.7202,0.62331 3.67472,0.70879 2.68826,0.11756 2.5964,0.13954 8.04826,-1.92618 3.31655,-1.25666 4.88726,-1.46349 13.10801,-1.72611 4.29286,-0.13714 8.19216,-0.30449 8.6651,-0.37191 0.47295,-0.0674 0.8599,-0.0723 0.8599,-0.0109 0,0.0614 -0.35878,0.69477 -0.79729,1.40745 -0.43851,0.71266 -1.03438,1.98486 -1.32415,2.8271 -1.14308,3.32242 -2.75431,5.11299 -5.26093,5.8465 -3.01839,0.88328 -5.36982,-0.15234 -10.46817,-4.6104 -0.98618,-0.86233 -1.79693,-1.36797 -2.12114,-1.32291 -0.35757,0.0497 -0.93165,0.82517 -1.80152,2.43348 -3.63133,6.71407 -5.83759,8.58394 -10.352,8.77361 -1.17609,0.0494 -2.57653,-0.0344 -3.11209,-0.18627 z"
         style="fill:#2c2426;stroke-width:0.26458335"
         sodipodi:nodetypes="cccsccscsccccccssscscccssssssccscccscscsccccccscccccsssccsscccccscscccccsccc" />
      <path
         style="fill:none;stroke:#2c2426;stroke-width:1.11438286;stroke-linecap:butt;stroke-linejoin:miter;stroke-miterlimit:4;stroke-dasharray:none;stroke-opacity:1"
         d="m 152.35545,87.827205 c 0.13765,-7.17217 0.27536,-14.347277 5.09394,-19.028768 4.81858,-4.68149 14.31855,-6.871385 23.81781,-9.061115"
         id="path10919"
         inkscape:connector-curvature="0"
         inkscape:path-effect="#path-effect10921"
         inkscape:original-d="m 152.35545,87.827205 c 0.0688,-7.173491 0.27562,-14.347272 0.41303,-21.520475 9.49944,-2.190001 18.99941,-4.379894 28.49872,-6.569408" />
      <path
         style="fill:#ffffff;fill-opacity:1;stroke:none;stroke-width:1.66406262;stroke-linejoin:round;stroke-miterlimit:4;stroke-dasharray:none;stroke-opacity:1;paint-order:fill markers stroke"
         d="m 173.26577,249.77786 c -1.86075,-0.96776 -2.99309,-2.17407 -4.00721,-4.26896 -0.86431,-1.78542 -0.92342,-2.54238 -1.08849,-13.93916 l -0.17455,-12.05121 2.87559,-1.67944 c 4.37487,-2.55506 10.21997,-7.20023 14.66564,-11.65494 10.51048,-10.53187 13.56878,-19.98305 13.02556,-40.25343 -0.32534,-12.14018 -2.18058,-25.83839 -4.13202,-30.50884 l -0.60421,-1.44607 4.80936,-0.48274 c 10.2196,-1.02579 19.21712,-3.92948 26.58153,-8.57842 0.86303,-0.54481 1.69557,-0.99057 1.85007,-0.99057 0.15451,0 0.13883,7.48792 -0.0348,16.63981 -0.17366,9.1519 -0.37638,21.10466 -0.4505,26.56169 -0.67275,49.53433 -4.14921,72.21708 -11.86101,77.38923 -2.14003,1.43528 -4.43428,1.77808 -14.58318,2.17898 -10.31246,0.40735 -11.98594,0.65602 -16.88184,2.50853 -3.75792,1.42192 -7.90334,1.66074 -9.98991,0.57554 z"
         id="path10924"
         inkscape:connector-curvature="0" />
      <path
         style="fill:#ffffff;fill-opacity:1;stroke:none;stroke-width:1.66406262;stroke-linejoin:round;stroke-miterlimit:4;stroke-dasharray:none;stroke-opacity:1;paint-order:fill markers stroke"
         d="m 192.83294,132.0131 c -1.30382,-2.82435 -4.4778,-7.05894 -7.02148,-9.36775 l -2.09201,-1.89884 0.72032,-1.40845 c 0.39618,-0.77464 1.65523,-2.76691 2.79788,-4.42725 2.75127,-3.99774 4.18735,-4.80493 10.44503,-5.87089 5.12347,-0.87276 13.77172,-3.60554 21.82869,-6.8977 2.47007,-1.00929 4.72602,-1.74491 5.01322,-1.6347 0.2872,0.1102 0.82125,1.8127 1.1868,3.78332 0.74012,3.98999 1.76483,18.35872 1.38065,19.35987 -0.37609,0.9801 -6.21105,4.23198 -10.83148,6.0365 -6.52535,2.54849 -12.72346,3.87857 -19.91362,4.27334 l -2.55034,0.14003 z"
         id="path10926"
         inkscape:connector-curvature="0" />
      <path
         style="fill:#ffffff;fill-opacity:1;stroke:none;stroke-width:1.66406262;stroke-linejoin:round;stroke-miterlimit:4;stroke-dasharray:none;stroke-opacity:1;paint-order:fill markers stroke"
         d="m 174.506,91.45495 c -10.94977,-1.134002 -15.23684,-2.13079 -19.12027,-4.445664 -2.161,-1.288148 -2.1704,-1.302787 -2.16729,-3.376819 0.002,-1.145683 0.19291,-3.252592 0.42488,-4.682019 1.50937,-9.301194 6.21379,-13.089948 20.93304,-16.858665 l 2.96424,-0.758965 1.92408,1.773552 c 2.66085,2.452685 4.6502,3.203223 9.92414,3.744156 5.51289,0.565441 8.22903,1.297167 11.84779,3.191793 6.62966,3.470995 9.12027,7.727947 7.20428,12.313557 -1.21984,2.919482 -9.42685,7.959662 -14.50455,8.907695 -4.03165,0.752732 -13.14342,0.842476 -19.43034,0.191379 z m 24.21637,-9.667039 c 1.58464,-1.584634 1.56952,-3.041615 -0.0484,-4.65949 -1.04364,-1.043643 -1.47518,-1.213122 -2.54442,-0.999273 -1.55064,0.310126 -2.3664,0.937345 -2.84032,2.183861 -0.75454,1.984589 1.20254,4.617106 3.4694,4.666784 0.4154,0.0091 1.29907,-0.527243 1.9637,-1.191882 z"
         id="path10928"
         inkscape:connector-curvature="0" />
    </g>
  </g>
  <g
     inkscape:groupmode="layer"
     id="layer3"
     inkscape:label="Helmet"
     transform="translate(0,13)">
    <circle
       style="fill:#e6e6e6;fill-opacity:0.43103446;stroke:none;stroke-width:0.26458332"
       id="path10397"
       cx="193.65312"
       cy="72.978111"
       r="60.93745" />
  </g>
  <g
     inkscape:groupmode="layer"
     id="layer9"
     inkscape:label="Desk"
     transform="translate(0,13)">
    <g
       inkscape:groupmode="layer"
       id="layer10"
       inkscape:label="Desk Table">
      <path
         style="fill:#8c6239;stroke-width:0.45231581"
         inkscape:connector-curvature="0"
         id="path44"
         d="M 449.18766,157.70434 H 7.9435951 c -3.966923,0 -7.19277498,-3.47297 -7.19277498,-7.7438 v 0 c 0,-4.27084 3.22585198,-7.74383 7.19277498,-7.74383 H 449.23126 c 3.96693,0 7.19278,3.47299 7.19278,7.74383 v 0 c -0.0437,4.31775 -3.26945,7.7438 -7.23638,7.7438 z"
         class="st6" />
      <rect
         style="fill:#754c24;stroke-width:0.45231581"
         id="rect46"
         height="6.9459677"
         width="26.853027"
         class="st4"
         y="289.63077"
         x="346.87589" />
      <rect
         style="fill:#754c24;stroke-width:0.45231581"
         id="rect48"
         height="6.9459677"
         width="26.853027"
         class="st4"
         y="289.63077"
         x="421.15765" />
      <rect
         style="fill:#8c6239;stroke-width:0.45231581"
         id="rect50"
         height="131.92645"
         width="101.35275"
         class="st6"
         transform="scale(-1)"
         y="-289.66483"
         x="-448.00836" />
      <rect
         style="fill:#754c24;stroke-width:0.45231581"
         id="rect52"
         height="6.9459677"
         width="26.853027"
         class="st4"
         y="289.63077"
         x="7.8999939" />
      <rect
         style="fill:#754c24;stroke-width:0.45231581"
         id="rect54"
         height="6.9459677"
         width="26.853027"
         class="st4"
         y="289.63077"
         x="82.181763" />
      <rect
         style="fill:#8c6239;stroke-width:0.45231581"
         id="rect56"
         height="131.92645"
         width="101.35275"
         class="st6"
         transform="scale(-1)"
         y="-289.66483"
         x="-109.05141" />
      <rect
         style="fill:#754c24;stroke-width:0.45231581"
         id="rect58"
         height="6.9459677"
         width="440.32861"
         class="st4"
         y="157.70432"
         x="7.6820374" />
      <g
         transform="matrix(0.4359258,0,0,0.46932212,-189.92314,-135.62198)"
         id="g72">
        <path
           style="fill:#bca184"
           inkscape:connector-curvature="0"
           id="path60"
           d="m 630.2,570.6 c -10.4,0 -18.8,-8.5 -18.8,-18.8 0,-10.4 8.5,-18.8 18.8,-18.8 10.4,0 18.8,8.5 18.8,18.8 0.1,10.3 -8.4,18.8 -18.8,18.8 z m 0,-29.8 c -6,0 -10.9,4.9 -10.9,10.9 0,6 4.9,10.9 10.9,10.9 6,0 10.9,-4.9 10.9,-10.9 0,-6 -4.8,-10.9 -10.9,-10.9 z"
           class="st7" />
        <path
           style="fill:#c7b299"
           inkscape:connector-curvature="0"
           id="path62"
           d="m 612.9,593 h -27.3 c -9.1,0 -16.6,-7.4 -16.6,-16.6 v -47.2 c 0,-1.8 1.4,-3.2 3.2,-3.2 h 53.9 c 1.8,0 3.2,1.4 3.2,3.2 v 47.2 c 0.2,9.2 -7.2,16.6 -16.4,16.6 z"
           class="st8" />
        <path
           style="fill:#bca184"
           inkscape:connector-curvature="0"
           id="path64"
           d="m 626.2,526 h -11.4 c 1.8,0 3.2,1.4 3.2,3.2 v 47.2 c 0,9.1 -7.3,16.6 -16.5,16.6 h 11.4 c 9.1,0 17.1,-7.4 17.1,-16.6 v -47.2 c 0,-1.8 -2,-3.2 -3.8,-3.2 z"
           class="st7" />
        <path
           style="fill:#e6e6e6"
           inkscape:connector-curvature="0"
           id="path66"
           d="m 585.6,517.6 v 0 c -1.8,0 -3.2,-1.4 -3.2,-3.2 v -17.1 c 0,-1.8 1.4,-3.2 3.2,-3.2 v 0 c 1.8,0 3.2,1.4 3.2,3.2 v 17.1 c 0,1.8 -1.4,3.2 -3.2,3.2 z"
           class="st9" />
        <path
           style="fill:#e6e6e6"
           inkscape:connector-curvature="0"
           id="path68"
           d="m 600,517.6 v 0 c -1.8,0 -3.2,-1.4 -3.2,-3.2 v -32.6 c 0,-1.8 1.4,-3.2 3.2,-3.2 v 0 c 1.8,0 3.2,1.4 3.2,3.2 v 32.6 c -0.1,1.8 -1.5,3.2 -3.2,3.2 z"
           class="st9" />
        <path
           style="fill:#e6e6e6"
           inkscape:connector-curvature="0"
           id="path70"
           d="m 614.3,517.6 v 0 c -1.8,0 -3.2,-1.4 -3.2,-3.2 V 491 c 0,-1.8 1.4,-3.2 3.2,-3.2 v 0 c 1.8,0 3.2,1.4 3.2,3.2 v 23.4 c -0.1,1.8 -1.5,3.2 -3.2,3.2 z"
           class="st9" />
      </g>
      <g
         transform="matrix(0.4359258,0,0,0.46932212,-189.92314,-135.62198)"
         id="g174">
        <g
           id="g86">
          <path
             style="fill:#e6e6e6"
             inkscape:connector-curvature="0"
             id="path74"
             d="m 1357.8,553.8 c 0,0 4.5,-13.5 4.5,-21.5 0,-8 -10.9,-7.6 -10.9,0 0,7.6 4.5,21.5 4.5,21.5 0.2,1.4 1.6,1.4 1.9,0 z"
             class="st9" />
          <path
             style="fill:#666666"
             inkscape:connector-curvature="0"
             id="path76"
             d="m 1356.8,457.7 v 0 c 1.5,0 2.7,-1.2 2.7,-2.7 v -8.8 c 0,-1.5 -1.2,-2.7 -2.7,-2.7 v 0 c -1.5,0 -2.7,1.2 -2.7,2.7 v 8.8 c 0,1.5 1.2,2.7 2.7,2.7 z"
             class="st10" />
          <rect
             style="fill:#333333"
             id="rect78"
             height="81.199997"
             width="10.9"
             class="st1"
             transform="rotate(180,1356.7916,491.67165)"
             y="451.10001"
             x="1351.3" />
          <polyline
             style="fill:none;stroke:#e6e6e6;stroke-width:3;stroke-miterlimit:10"
             id="polyline80"
             points="1362.2,459.6 1347.9,459.6 1347.9,497.5    "
             class="st11" />
          <path
             style="fill:#666666"
             inkscape:connector-curvature="0"
             id="path82"
             d="m 1356.4,500.7 v 0 c 1.3,0 2.4,-1.1 2.4,-2.4 v -28.8 c 0,-1.3 -1.1,-2.4 -2.4,-2.4 v 0 c -1.3,0 -2.4,1.1 -2.4,2.4 v 28.8 c 0.1,1.4 1.1,2.4 2.4,2.4 z"
             class="st10" />
          <path
             style="fill:#333333"
             inkscape:connector-curvature="0"
             id="path84"
             d="m 1358.2,552.4 c -0.3,0.8 -0.4,1.3 -0.4,1.3 -0.3,1.5 -1.7,1.5 -2,0 0,0 -0.2,-0.5 -0.4,-1.3 z"
             class="st1" />
        </g>
        <g
           id="g154">
          <rect
             style="fill:#bdccd4"
             id="rect88"
             height="133.39999"
             width="27.4"
             class="st12"
             y="425.60001"
             x="1369.5" />
          <rect
             style="fill:#a8bdc6"
             id="rect90"
             height="133.39999"
             width="8.5"
             class="st13"
             y="425.60001"
             x="1388.3" />
          <line
             style="fill:none;stroke:#7f99a5;stroke-miterlimit:10"
             id="line92"
             y2="433.10001"
             x2="1382.1"
             y1="433.10001"
             x1="1373.1"
             class="st14" />
          <line
             style="fill:none;stroke:#7f99a5;stroke-miterlimit:10"
             id="line94"
             y2="471.29999"
             x2="1382.1"
             y1="471.29999"
             x1="1373.1"
             class="st14" />
          <line
             style="fill:none;stroke:#7f99a5;stroke-miterlimit:10"
             id="line96"
             y2="452.20001"
             x2="1379.4"
             y1="452.20001"
             x1="1373.1"
             class="st14" />
          <line
             style="fill:none;stroke:#7f99a5;stroke-miterlimit:10"
             id="line98"
             y2="436.89999"
             x2="1376.7"
             y1="436.89999"
             x1="1373.1"
             class="st14" />
          <line
             style="fill:none;stroke:#7f99a5;stroke-miterlimit:10"
             id="line100"
             y2="440.70001"
             x2="1376.7"
             y1="440.70001"
             x1="1373.1"
             class="st14" />
          <line
             style="fill:none;stroke:#7f99a5;stroke-miterlimit:10"
             id="line102"
             y2="444.5"
             x2="1376.7"
             y1="444.5"
             x1="1373.1"
             class="st14" />
          <line
             style="fill:none;stroke:#7f99a5;stroke-miterlimit:10"
             id="line104"
             y2="448.39999"
             x2="1376.7"
             y1="448.39999"
             x1="1373.1"
             class="st14" />
          <line
             style="fill:none;stroke:#7f99a5;stroke-miterlimit:10"
             id="line106"
             y2="456"
             x2="1376.7"
             y1="456"
             x1="1373.1"
             class="st14" />
          <line
             style="fill:none;stroke:#7f99a5;stroke-miterlimit:10"
             id="line108"
             y2="459.79999"
             x2="1376.7"
             y1="459.79999"
             x1="1373.1"
             class="st14" />
          <line
             style="fill:none;stroke:#7f99a5;stroke-miterlimit:10"
             id="line110"
             y2="463.60001"
             x2="1376.7"
             y1="463.60001"
             x1="1373.1"
             class="st14" />
          <line
             style="fill:none;stroke:#7f99a5;stroke-miterlimit:10"
             id="line112"
             y2="467.5"
             x2="1376.7"
             y1="467.5"
             x1="1373.1"
             class="st14" />
          <line
             style="fill:none;stroke:#7f99a5;stroke-miterlimit:10"
             id="line114"
             y2="509.89999"
             x2="1382.1"
             y1="509.89999"
             x1="1373.1"
             class="st14" />
          <line
             style="fill:none;stroke:#7f99a5;stroke-miterlimit:10"
             id="line116"
             y2="490.79999"
             x2="1379.4"
             y1="490.79999"
             x1="1373.1"
             class="st14" />
          <line
             style="fill:none;stroke:#7f99a5;stroke-miterlimit:10"
             id="line118"
             y2="475.5"
             x2="1376.7"
             y1="475.5"
             x1="1373.1"
             class="st14" />
          <line
             style="fill:none;stroke:#7f99a5;stroke-miterlimit:10"
             id="line120"
             y2="479.29999"
             x2="1376.7"
             y1="479.29999"
             x1="1373.1"
             class="st14" />
          <line
             style="fill:none;stroke:#7f99a5;stroke-miterlimit:10"
             id="line122"
             y2="483.10001"
             x2="1376.7"
             y1="483.10001"
             x1="1373.1"
             class="st14" />
          <line
             style="fill:none;stroke:#7f99a5;stroke-miterlimit:10"
             id="line124"
             y2="487"
             x2="1376.7"
             y1="487"
             x1="1373.1"
             class="st14" />
          <line
             style="fill:none;stroke:#7f99a5;stroke-miterlimit:10"
             id="line126"
             y2="494.60001"
             x2="1376.7"
             y1="494.60001"
             x1="1373.1"
             class="st14" />
          <line
             style="fill:none;stroke:#7f99a5;stroke-miterlimit:10"
             id="line128"
             y2="498.39999"
             x2="1376.7"
             y1="498.39999"
             x1="1373.1"
             class="st14" />
          <line
             style="fill:none;stroke:#7f99a5;stroke-miterlimit:10"
             id="line130"
             y2="502.20001"
             x2="1376.7"
             y1="502.20001"
             x1="1373.1"
             class="st14" />
          <line
             style="fill:none;stroke:#7f99a5;stroke-miterlimit:10"
             id="line132"
             y2="506.10001"
             x2="1376.7"
             y1="506.10001"
             x1="1373.1"
             class="st14" />
          <line
             style="fill:none;stroke:#7f99a5;stroke-miterlimit:10"
             id="line134"
             y2="548.5"
             x2="1382.1"
             y1="548.5"
             x1="1373.1"
             class="st14" />
          <line
             style="fill:none;stroke:#7f99a5;stroke-miterlimit:10"
             id="line136"
             y2="529.40002"
             x2="1379.4"
             y1="529.40002"
             x1="1373.1"
             class="st14" />
          <line
             style="fill:none;stroke:#7f99a5;stroke-miterlimit:10"
             id="line138"
             y2="514.09998"
             x2="1376.7"
             y1="514.09998"
             x1="1373.1"
             class="st14" />
          <line
             style="fill:none;stroke:#7f99a5;stroke-miterlimit:10"
             id="line140"
             y2="517.90002"
             x2="1376.7"
             y1="517.90002"
             x1="1373.1"
             class="st14" />
          <line
             style="fill:none;stroke:#7f99a5;stroke-miterlimit:10"
             id="line142"
             y2="521.70001"
             x2="1376.7"
             y1="521.70001"
             x1="1373.1"
             class="st14" />
          <line
             style="fill:none;stroke:#7f99a5;stroke-miterlimit:10"
             id="line144"
             y2="525.59998"
             x2="1376.7"
             y1="525.59998"
             x1="1373.1"
             class="st14" />
          <line
             style="fill:none;stroke:#7f99a5;stroke-miterlimit:10"
             id="line146"
             y2="533.20001"
             x2="1376.7"
             y1="533.20001"
             x1="1373.1"
             class="st14" />
          <line
             style="fill:none;stroke:#7f99a5;stroke-miterlimit:10"
             id="line148"
             y2="537"
             x2="1376.7"
             y1="537"
             x1="1373.1"
             class="st14" />
          <line
             style="fill:none;stroke:#7f99a5;stroke-miterlimit:10"
             id="line150"
             y2="540.79999"
             x2="1376.7"
             y1="540.79999"
             x1="1373.1"
             class="st14" />
          <line
             style="fill:none;stroke:#7f99a5;stroke-miterlimit:10"
             id="line152"
             y2="544.70001"
             x2="1376.7"
             y1="544.70001"
             x1="1373.1"
             class="st14" />
        </g>
        <g
           id="g166">
          <rect
             style="fill:#ffc06c"
             id="rect156"
             height="95.800003"
             width="11.9"
             class="st15"
             y="453.79999"
             x="1394.5" />
          <rect
             style="fill:#e6e6e6"
             id="rect158"
             height="9"
             width="12.3"
             class="st9"
             y="444.79999"
             x="1394.5" />
          <path
             style="fill:#c1272d"
             inkscape:connector-curvature="0"
             id="path160"
             d="m 1406.8,444.8 h -12.3 v -4 c 0,-2.2 0,-4 2.5,-4 h 7.1 c 2.7,0 2.7,2 2.7,4.4 z"
             class="st16" />
          <polygon
             style="fill:#fff0b3"
             id="polygon162"
             points="1400.6,565 1394.5,549.6 1406.8,549.6 "
             class="st17" />
          <polygon
             style="fill:#603813"
             id="polygon164"
             points="1403.7,557.3 1397.5,557.3 1400.6,565 "
             class="st18" />
        </g>
        <path
           style="fill:#999999"
           inkscape:connector-curvature="0"
           id="path168"
           d="M 1412.3,591.9 H 1338 v -88.6 c 0,-2.8 2.3,-5.1 5.1,-5.1 h 64.1 c 2.8,0 5.1,2.3 5.1,5.1 z"
           class="st19" />
        <rect
           style="fill:#666666"
           id="rect170"
           height="8"
           width="74.300003"
           class="st10"
           y="512.79999"
           x="1338" />
        <rect
           style="fill:#666666"
           id="rect172"
           height="8"
           width="74.300003"
           class="st10"
           y="531.09998"
           x="1338" />
      </g>
      <g
         transform="matrix(0.4359258,0,0,0.46932212,-189.92314,-135.62198)"
         id="g204">
        <path
           style="fill:#333333"
           inkscape:connector-curvature="0"
           id="path196"
           d="m 1221.5,592.3 h -126.8 c -3.8,0 -6.9,-3.1 -6.9,-6.9 v -0.8 c 0,-3.8 3.1,-6.9 6.9,-6.9 h 126.8 c 3.8,0 6.9,3.1 6.9,6.9 v 0.8 c 0,3.8 -3.1,6.9 -6.9,6.9 z"
           class="st1" />
        <path
           style="fill:#333333"
           inkscape:connector-curvature="0"
           id="path198"
           d="m 1304.3,545.3 h -292.5 c -4.5,0 -8.1,-3.6 -8.1,-8.1 V 359.1 c 0,-4.5 3.6,-8.1 8.1,-8.1 h 292.5 c 4.5,0 8.1,3.6 8.1,8.1 v 178.1 c 0,4.4 -3.6,8.1 -8.1,8.1 z"
           class="st1" />
        <path
           style="fill:#4d4d4d"
           inkscape:connector-curvature="0"
           id="path200"
           d="M 1013,544.8 V 366.7 c 0,-4.5 3.7,-7.7 8.1,-7.7 H 1313 c -0.2,-4 -3.7,-8 -8.1,-8 h -292.5 c -4.5,0 -8.5,3.6 -8.5,8.1 v 178.1 c 0,4.5 4,7.8 8.5,7.8 h 0.6 c 0.1,0 0,0 0,-0.2 z"
           class="st5" />
        <rect
           style="fill:#4d4d4d"
           id="rect202"
           height="69.699997"
           width="69.699997"
           class="st5"
           y="508"
           x="1123.3" />
      </g>
      <g
         transform="matrix(0.4359258,0,0,0.46932212,-189.92314,-135.62198)"
         id="g222">
        <polygon
           style="fill:#c13a3a"
           id="polygon206"
           points="481.3,574.1 490.2,571.3 450.4,409.2 583.6,317.3 578.3,309.6 439.5,405.4 "
           class="st22" />
        <polygon
           style="fill:#c13a3a"
           id="polygon208"
           points="499.3,581.1 508.2,578.3 468.4,416.2 601.6,324.3 596.3,316.6 457.5,412.4 "
           class="st22" />
        <path
           style="fill:#c13a3a"
           inkscape:connector-curvature="0"
           id="path210"
           d="m 565.5,291 v 0 c -6.2,10.1 -3.1,23.4 7,29.6 l 18.3,11.3 22.6,-36.6 -18.3,-11.3 c -10.1,-6.2 -23.4,-3.1 -29.6,7 z"
           class="st22" />
        <circle
           style="fill:#f2f2f2"
           r="17.700001"
           id="ellipse212"
           cy="340.89999"
           cx="641.90002"
           class="st23"
           transform="matrix(0.525,-0.8511,0.8511,0.525,14.7577,708.2072)" />
        <polygon
           style="fill:#e24b4b"
           id="polygon214"
           points="615.4,393.6 615.1,393.4 590.8,331.9 613.4,295.3 678.9,289.9 679.2,290.1 "
           class="st0" />
        <circle
           style="fill:#e24b4b"
           id="circle216"
           r="18.299999"
           cy="410.10001"
           cx="456.5"
           class="st0" />
        <circle
           style="fill:#c13a3a"
           id="circle218"
           r="8.3000002"
           cy="410.10001"
           cx="456.5"
           class="st22" />
        <path
           style="fill:#e24b4b"
           inkscape:connector-curvature="0"
           id="path220"
           d="m 453.5,591.9 h 81.6 v -7.4 c 0,-9.2 -7.4,-16.6 -16.6,-16.6 h -48.4 c -9.2,0 -16.6,7.4 -16.6,16.6 z"
           class="st0" />
      </g>
    </g>
  </g>
</svg>
